{"glyphs":{"0":{"ha":775,"x_min":72,"x_max":708,"o":"m 631 74 q 592 36 631 74 q 390 -3 553 -3 q 150 74 228 -3 q 72 317 72 151 l 72 749 q 151 989 72 910 q 390 1068 229 1068 q 631 991 553 1068 q 708 749 708 914 l 708 317 q 631 74 708 151 m 292 206 q 306 186 292 206 q 390 167 319 167 q 489 206 461 167 q 517 326 517 246 l 517 739 q 489 859 517 819 q 390 899 461 899 q 292 859 319 899 q 264 739 264 819 l 264 326 q 292 206 264 246 z "},"1":{"ha":588,"x_min":33,"x_max":565,"o":"m 33 0 l 33 157 l 207 157 l 207 907 l 71 907 l 71 1072 l 400 1072 l 400 157 l 565 157 l 565 0 l 33 0 z "},"2":{"ha":743,"x_min":68,"x_max":685,"o":"m 68 0 l 68 219 q 92 379 68 311 q 153 485 115 447 q 235 549 190 522 q 326 597 281 576 q 408 639 371 617 q 469 699 446 661 q 493 792 493 738 q 382 907 493 907 q 292 877 318 907 q 265 757 265 847 l 74 757 q 147 998 74 919 q 383 1076 221 1076 q 610 999 535 1076 q 685 794 685 921 q 661 637 685 701 q 600 538 638 572 q 517 481 563 504 q 427 441 472 458 q 344 401 382 424 q 283 333 307 378 q 260 224 260 289 l 260 189 l 669 189 l 669 0 l 68 0 z "},"3":{"ha":744,"x_min":56,"x_max":685,"o":"m 56 336 l 240 336 q 361 176 240 176 q 460 210 428 176 q 492 324 492 244 q 351 479 492 479 l 250 479 l 250 650 l 351 650 q 455 689 422 650 q 488 790 488 728 q 458 877 488 844 q 372 910 428 910 q 285 877 318 910 q 253 775 253 844 l 74 775 q 147 1008 74 933 q 374 1082 219 1082 q 586 1006 503 1082 q 669 786 669 931 q 641 660 669 724 q 551 569 613 597 q 656 482 626 542 q 685 325 685 422 q 602 81 685 169 q 363 -7 519 -7 q 56 336 56 -7 z "},"4":{"ha":788,"x_min":-3,"x_max":707,"o":"m 419 215 l 19 215 l -3 349 l 419 1072 l 604 1072 l 604 389 l 707 389 l 707 215 l 604 215 l 604 0 l 419 0 l 419 215 m 419 389 l 419 547 l 440 783 l 228 389 l 419 389 z "},"5":{"ha":750,"x_min":56,"x_max":694,"o":"m 56 360 l 246 360 q 276 210 249 254 q 376 167 304 167 q 475 206 447 167 q 503 326 503 246 l 503 393 q 476 511 503 474 q 379 549 450 549 l 63 549 l 63 1068 l 646 1068 l 646 888 l 244 888 l 244 722 l 379 722 q 618 645 542 722 q 694 403 694 568 l 694 317 q 617 74 694 151 q 376 -3 539 -3 q 134 80 211 -3 q 56 360 57 163 z "},"6":{"ha":781,"x_min":76,"x_max":707,"o":"m 626 1069 l 632 1050 q 469 924 542 1001 q 358 779 397 847 q 426 781 378 781 q 633 708 558 781 q 707 486 707 635 l 707 306 q 634 61 707 135 q 392 -12 561 -12 q 149 61 221 -12 q 76 306 76 135 l 76 486 q 166 821 76 665 q 396 1069 256 976 l 626 1069 m 297 198 q 311 184 297 198 q 392 169 325 169 q 486 198 458 169 q 514 306 514 226 l 514 486 q 486 583 514 557 q 392 608 458 608 q 297 583 325 608 q 269 486 269 557 l 269 306 q 297 198 269 226 z "},"7":{"ha":650,"x_min":18,"x_max":621,"o":"m 621 1068 l 621 1003 l 279 0 l 74 0 l 379 888 l 18 888 l 18 1068 l 621 1068 z "},"8":{"ha":761,"x_min":56,"x_max":692,"o":"m 614 63 q 575 25 614 63 q 374 -14 536 -14 q 133 63 211 -14 q 56 306 56 140 l 56 381 q 81 511 56 460 q 167 599 107 563 q 94 688 118 631 q 71 800 71 744 q 147 999 71 922 q 375 1075 222 1075 q 603 999 528 1075 q 679 800 679 922 q 653 686 679 746 q 588 599 628 626 q 667 506 642 556 q 692 381 692 456 l 692 306 q 614 63 692 140 m 275 195 q 289 175 275 195 q 374 156 303 156 q 472 195 444 156 q 500 315 500 235 l 500 371 q 473 487 500 450 q 374 524 446 524 q 274 488 301 524 q 247 371 247 451 l 247 315 q 275 195 247 235 m 375 675 l 385 675 q 460 713 432 676 q 488 796 488 749 q 458 876 488 846 q 375 906 428 906 q 292 876 322 906 q 263 796 263 846 q 293 710 263 746 q 375 675 324 675 z "},"9":{"ha":781,"x_min":76,"x_max":707,"o":"m 157 0 l 151 19 q 314 145 242 68 q 425 290 386 222 q 357 289 406 289 q 151 362 225 289 q 76 583 76 435 l 76 764 q 149 1008 76 935 q 392 1082 222 1082 q 635 1008 563 1082 q 707 764 707 935 l 707 583 q 617 249 707 404 q 388 0 528 93 l 157 0 m 486 872 q 472 886 486 872 q 392 900 458 900 q 297 872 325 900 q 269 764 269 843 l 269 583 q 297 487 269 513 q 392 461 325 461 q 486 487 458 461 q 514 583 514 513 l 514 764 q 486 872 514 843 z "},"\r":{"ha":372,"x_min":0,"x_max":0,"o":""}," ":{"ha":349,"x_min":0,"x_max":0,"o":""},"!":{"ha":372,"x_min":83,"x_max":299,"o":"m 294 1069 l 281 272 l 106 272 l 106 1069 l 294 1069 m 117 22 q 100 36 117 22 q 83 100 83 50 q 117 178 83 150 q 191 207 150 207 q 265 178 232 207 q 299 100 299 150 q 265 23 299 51 q 191 -6 232 -6 q 117 22 150 -6 z "},"\"":{"ha":486,"x_min":49,"x_max":453,"o":"m 204 753 l 54 753 l 49 1068 l 210 1068 l 204 753 m 447 753 l 297 753 l 292 1068 l 453 1068 l 447 753 z "},"#":{"ha":974,"x_min":44,"x_max":939,"o":"m 117 636 l 149 785 l 288 785 l 344 1060 l 501 1060 l 444 785 l 646 785 l 703 1060 l 860 1060 l 803 785 l 939 785 l 907 636 l 771 636 l 731 436 l 867 436 l 835 288 l 700 288 l 642 0 l 483 0 l 542 288 l 340 288 l 282 0 l 125 0 l 183 288 l 44 288 l 76 436 l 215 436 l 256 636 l 117 636 m 413 636 l 372 436 l 574 436 l 614 636 l 413 636 z "},"$":{"ha":818,"x_min":61,"x_max":776,"o":"m 338 -151 l 338 -7 q 61 290 61 22 l 254 290 q 293 194 257 225 q 417 164 329 164 q 544 203 504 164 q 585 333 585 243 q 577 380 585 360 q 551 414 569 400 q 518 437 533 428 q 472 453 503 446 q 424 463 440 460 q 370 469 407 465 q 321 475 333 474 q 72 771 72 507 q 338 1069 72 1035 l 338 1219 l 508 1219 l 508 1068 q 753 790 732 1032 l 560 790 q 521 881 556 856 q 414 907 486 907 q 299 877 333 907 q 265 772 265 847 q 271 724 265 744 q 291 688 276 703 q 319 665 306 674 q 362 650 333 657 q 410 640 390 643 q 469 633 429 638 q 535 624 510 628 q 626 601 588 615 q 701 556 664 586 q 757 471 738 525 q 776 340 776 417 q 713 96 776 179 q 508 -6 649 13 l 508 -151 l 338 -151 z "},"%":{"ha":1149,"x_min":42,"x_max":1093,"o":"m 888 0 q 734 50 783 0 q 685 206 685 100 l 685 325 q 888 531 685 531 q 1043 481 993 531 q 1093 325 1093 431 l 1093 206 q 1043 50 1093 100 q 888 0 993 0 m 888 149 q 935 167 922 149 q 949 226 949 186 l 949 306 q 935 364 949 346 q 888 382 922 382 q 841 364 854 382 q 828 306 828 346 l 828 226 q 841 167 828 186 q 888 149 854 149 m 244 549 q 91 599 140 549 q 42 754 42 649 l 42 874 q 244 1079 42 1079 q 400 1029 350 1079 q 450 874 450 979 l 450 754 q 400 599 450 649 q 244 549 350 549 m 244 697 q 292 716 279 697 q 306 775 306 735 l 306 854 q 292 913 306 894 q 244 931 279 931 q 198 913 211 931 q 185 854 185 894 l 185 775 q 198 716 185 735 q 244 697 211 697 m 628 1089 l 815 1071 l 504 -19 l 318 0 l 628 1089 z "},"&":{"ha":911,"x_min":72,"x_max":871,"o":"m 869 164 l 871 -19 q 661 113 703 -14 q 560 13 632 49 q 418 -22 489 -22 q 163 59 253 -22 q 72 310 72 140 q 122 466 72 393 q 253 572 171 539 q 122 792 122 629 q 215 1004 122 917 q 442 1092 307 1092 q 672 1015 592 1092 q 747 803 751 939 l 563 803 q 531 888 564 863 q 442 914 497 914 q 353 877 389 914 q 317 789 317 840 q 353 698 317 738 q 442 658 389 658 l 864 658 l 864 489 l 754 489 l 754 299 q 869 164 754 165 m 567 301 l 567 489 l 440 489 q 316 440 364 489 q 268 317 268 390 q 310 199 267 240 q 421 157 353 157 q 524 194 481 157 q 567 301 567 232 z "},"'":{"ha":256,"x_min":49,"x_max":210,"o":"m 204 753 l 54 753 l 49 1068 l 210 1068 l 204 753 z "},"(":{"ha":421,"x_min":81,"x_max":389,"o":"m 272 29 q 299 -65 272 -33 q 389 -94 326 -97 l 389 -287 q 156 -207 232 -292 q 81 26 81 -122 l 81 782 q 156 1015 81 931 q 389 1096 232 1100 l 389 903 q 299 874 326 906 q 272 779 272 842 l 272 29 z "},")":{"ha":433,"x_min":43,"x_max":351,"o":"m 160 29 l 160 779 q 133 874 160 842 q 43 903 106 906 l 43 1096 q 276 1015 200 1100 q 351 782 351 931 l 351 26 q 276 -207 351 -122 q 43 -287 200 -292 l 43 -94 q 133 -65 106 -97 q 160 29 160 -33 z "},"*":{"ha":488,"x_min":40,"x_max":460,"o":"m 460 797 l 339 676 q 268 792 290 724 q 233 793 246 794 q 163 676 213 726 l 42 797 q 156 868 94 850 q 158 901 158 879 q 40 974 89 925 l 163 1096 q 233 979 213 1046 l 267 979 q 339 1094 286 1042 l 460 974 q 344 903 410 924 q 343 869 343 892 q 460 797 411 849 z "},"+":{"ha":669,"x_min":46,"x_max":617,"o":"m 617 597 l 617 439 l 417 439 l 417 233 l 246 233 l 246 439 l 46 439 l 46 597 l 246 597 l 246 804 l 417 804 l 417 597 l 617 597 z "},",":{"ha":290,"x_min":0,"x_max":233,"o":"m 57 -228 l 0 -132 q 37 -99 24 -115 q 56 -59 50 -83 q 63 -24 61 -35 q 64 26 65 -14 q 63 78 63 65 l 224 78 q 193 -117 233 -43 q 57 -228 153 -192 z "},"-":{"ha":733,"x_min":85,"x_max":656,"o":"m 656 551 l 656 392 l 85 392 l 85 551 l 656 551 z "},".":{"ha":335,"x_min":69,"x_max":285,"o":"m 103 22 q 86 36 103 22 q 69 100 69 50 q 103 178 69 150 q 177 207 136 207 q 251 178 218 207 q 285 100 285 150 q 251 23 285 51 q 177 -6 218 -6 q 103 22 136 -6 z "},"/":{"ha":599,"x_min":56,"x_max":539,"o":"m 361 1069 l 539 1069 l 232 -1 l 56 -1 l 361 1069 z "},":":{"ha":346,"x_min":69,"x_max":285,"o":"m 103 22 q 86 36 103 22 q 69 100 69 50 q 103 178 69 150 q 177 207 136 207 q 251 178 218 207 q 285 100 285 150 q 251 23 285 51 q 177 -6 218 -6 q 103 22 136 -6 m 103 497 q 86 511 103 497 q 69 575 69 525 q 103 653 69 625 q 177 682 136 682 q 251 653 218 682 q 285 575 285 625 q 251 498 285 526 q 177 469 218 469 q 103 497 136 469 z "},";":{"ha":364,"x_min":19,"x_max":293,"o":"m 111 497 q 94 511 111 497 q 78 575 78 525 q 111 653 78 625 q 185 682 144 682 q 260 653 226 682 q 293 575 293 625 q 260 498 293 526 q 185 469 226 469 q 111 497 144 469 m 97 -228 l 19 -131 q 48 -107 36 -118 q 67 -81 60 -96 q 79 -56 75 -65 q 85 -26 83 -47 q 88 2 88 -6 q 88 39 89 10 q 88 78 88 68 l 267 78 q 97 -228 286 -156 z "},"<":{"ha":583,"x_min":69,"x_max":500,"o":"m 383 792 l 496 671 l 272 464 q 390 358 310 429 q 500 258 469 286 l 383 138 l 69 431 l 69 497 l 383 792 z "},"=":{"ha":772,"x_min":108,"x_max":664,"o":"m 664 699 l 664 532 l 108 532 l 108 699 l 664 699 m 664 399 l 664 232 l 108 232 l 108 399 l 664 399 z "},">":{"ha":585,"x_min":86,"x_max":515,"o":"m 515 492 l 515 426 l 201 135 l 86 251 l 311 457 q 89 669 294 472 l 201 789 l 515 492 z "},"?":{"ha":742,"x_min":42,"x_max":672,"o":"m 232 796 l 42 796 q 354 1100 42 1094 q 584 1024 496 1100 q 672 789 672 949 l 672 706 q 647 566 672 622 q 588 481 622 510 q 517 427 553 451 q 457 366 482 403 q 432 275 432 329 l 240 275 q 265 406 240 350 q 326 494 290 461 q 397 553 361 526 q 458 617 433 581 q 483 700 483 653 l 483 788 q 357 925 483 925 q 232 796 232 925 m 229 100 q 283 194 229 167 q 390 194 336 221 q 444 100 444 167 q 411 23 444 51 q 337 -6 378 -6 q 263 22 296 -6 q 229 100 229 50 z "},"@":{"ha":1108,"x_min":86,"x_max":1031,"o":"m 551 414 q 606 486 606 414 l 606 625 l 550 625 q 494 567 494 625 l 494 478 q 551 414 494 414 m 665 876 l 443 876 q 311 838 344 876 q 278 717 278 800 l 278 328 q 311 206 278 244 q 443 168 344 168 l 693 168 l 693 -1 l 443 -1 q 170 75 254 -1 q 86 318 86 151 l 86 726 q 168 972 86 897 q 443 1046 250 1046 l 665 1046 q 945 971 860 1046 q 1031 726 1031 896 l 1031 474 q 973 291 1031 342 q 807 240 915 240 q 654 325 690 240 q 624 296 636 306 q 585 275 613 286 q 522 264 557 264 q 397 308 442 264 q 353 436 353 353 l 353 603 q 410 728 353 683 q 550 774 468 774 l 746 774 l 746 478 q 747 428 746 444 q 760 397 749 413 q 793 382 771 382 q 830 403 821 382 q 839 475 839 425 l 839 731 q 805 844 839 811 q 665 876 771 876 z "},"A":{"ha":803,"x_min":13,"x_max":790,"o":"m 499 1068 l 790 0 l 593 0 l 539 189 l 265 189 l 210 0 l 13 0 l 308 1068 l 499 1068 m 313 376 l 490 376 l 401 772 l 313 376 z "},"B":{"ha":865,"x_min":83,"x_max":815,"o":"m 83 0 l 83 1069 l 401 1069 q 631 991 544 1069 q 717 786 717 913 q 697 683 717 728 q 619 599 678 638 q 760 510 706 581 q 815 332 815 439 q 724 77 815 154 q 436 0 633 0 l 83 0 m 274 482 l 274 174 l 439 174 q 576 209 543 174 q 610 328 610 244 q 573 447 610 411 q 436 482 536 482 l 274 482 m 401 906 l 275 906 l 275 658 l 403 658 q 490 694 460 658 q 519 783 519 729 q 492 869 519 833 q 401 906 465 906 z "},"C":{"ha":865,"x_min":82,"x_max":804,"o":"m 613 331 l 804 331 q 717 76 804 156 q 439 -3 631 -3 q 166 74 250 -3 q 82 317 82 150 l 82 751 q 164 997 82 922 q 439 1071 246 1071 q 719 994 633 1071 q 804 739 804 917 l 613 739 q 578 863 613 825 q 439 901 543 901 q 307 863 340 901 q 274 742 274 825 l 274 326 q 307 205 274 243 q 439 167 340 167 q 575 206 538 167 q 613 331 613 246 z "},"D":{"ha":889,"x_min":99,"x_max":815,"o":"m 99 1069 l 450 1069 q 730 994 644 1069 q 815 750 815 919 l 815 314 q 728 74 815 149 q 450 0 642 0 l 99 0 l 99 1069 m 289 174 l 450 174 q 587 208 550 174 q 624 324 624 243 l 624 740 q 590 859 624 824 q 453 894 557 894 l 289 894 l 289 174 z "},"E":{"ha":783,"x_min":97,"x_max":732,"o":"m 97 1069 l 713 1069 l 713 903 l 289 903 l 289 628 l 650 628 l 650 456 l 289 456 l 289 174 l 732 174 l 732 -1 l 97 -1 l 97 1069 z "},"F":{"ha":767,"x_min":96,"x_max":722,"o":"m 722 1069 l 722 894 l 286 894 l 286 628 l 656 628 l 656 454 l 286 454 l 286 -1 l 96 -1 l 96 1069 l 722 1069 z "},"G":{"ha":876,"x_min":79,"x_max":801,"o":"m 442 435 l 442 608 l 801 608 l 801 331 q 714 74 801 154 q 436 -6 626 -6 q 163 74 247 -6 q 79 326 79 153 l 79 756 q 163 999 79 922 q 436 1075 246 1075 q 716 1001 631 1075 q 801 756 801 926 l 610 756 q 576 871 610 836 q 436 906 542 906 q 305 866 339 906 q 271 746 271 826 l 271 326 q 304 205 271 243 q 436 167 338 167 q 581 208 538 167 q 624 331 624 249 l 624 435 l 442 435 z "},"H":{"ha":910,"x_min":97,"x_max":814,"o":"m 814 1051 l 814 0 l 624 0 l 624 422 l 290 422 l 290 -1 l 97 -1 l 97 1051 l 290 1051 l 290 597 l 624 597 l 624 1051 l 814 1051 z "},"I":{"ha":388,"x_min":97,"x_max":290,"o":"m 290 1068 l 290 -1 l 97 -1 l 97 1068 l 290 1068 z "},"J":{"ha":731,"x_min":11,"x_max":647,"o":"m 647 1069 l 647 313 q 569 70 647 147 q 329 -7 492 -7 q 11 322 11 -7 l 203 322 q 231 202 203 242 q 329 163 258 163 q 428 202 400 163 q 456 322 456 242 l 456 1069 l 647 1069 z "},"K":{"ha":875,"x_min":90,"x_max":869,"o":"m 869 0 l 636 0 l 335 429 l 281 429 l 281 0 l 90 0 l 90 1069 l 282 1069 l 282 619 l 333 619 l 614 1069 l 838 1069 l 489 535 l 869 0 z "},"L":{"ha":736,"x_min":97,"x_max":703,"o":"m 703 175 l 703 0 l 97 0 l 97 1069 l 290 1069 l 290 175 l 703 175 z "},"M":{"ha":1000,"x_min":97,"x_max":904,"o":"m 522 253 l 479 253 l 267 683 l 289 378 l 289 0 l 97 0 l 97 1069 l 282 1069 l 500 596 l 719 1069 l 904 1069 l 904 0 l 713 0 l 713 378 l 735 683 l 522 253 z "},"N":{"ha":865,"x_min":96,"x_max":769,"o":"m 769 1068 l 769 0 l 583 0 l 269 678 l 286 272 l 286 0 l 96 0 l 96 1068 l 286 1068 l 600 364 l 579 815 l 579 1068 l 769 1068 z "},"O":{"ha":890,"x_min":82,"x_max":804,"o":"m 439 -10 q 166 67 250 -10 q 82 310 82 143 l 82 763 q 164 1008 82 933 q 439 1082 246 1082 q 719 1007 633 1082 q 804 763 804 932 l 804 310 q 717 67 804 144 q 439 -10 629 -10 m 307 198 q 324 179 307 198 q 439 160 340 160 q 575 199 538 160 q 613 319 613 238 l 613 753 q 578 874 613 835 q 439 913 543 913 q 308 873 342 913 q 274 753 274 833 l 274 319 q 307 198 274 236 z "},"P":{"ha":804,"x_min":97,"x_max":746,"o":"m 97 1069 l 367 1069 q 654 994 563 1069 q 746 750 746 918 l 746 651 q 652 407 746 486 q 367 328 558 328 l 293 328 l 293 0 l 97 0 l 97 1069 m 292 513 l 367 513 q 510 548 468 513 q 551 661 551 583 l 551 740 q 513 858 551 821 q 369 894 475 894 l 292 894 l 292 513 z "},"Q":{"ha":888,"x_min":82,"x_max":804,"o":"m 439 -3 q 166 74 250 -3 q 82 317 82 150 l 82 760 q 165 1006 82 931 q 439 1082 247 1082 q 718 1006 632 1082 q 804 760 804 929 l 804 326 q 621 19 804 78 q 629 -31 624 -12 q 651 -66 635 -49 q 700 -88 667 -83 q 786 -87 733 -93 l 786 -240 q 533 -201 621 -262 q 439 -3 446 -139 m 307 205 q 324 186 307 205 q 439 167 340 167 q 575 206 538 167 q 613 326 613 244 l 613 750 q 578 872 613 833 q 439 910 543 910 q 307 872 340 910 q 274 750 274 833 l 274 326 q 307 205 274 243 z "},"R":{"ha":825,"x_min":97,"x_max":796,"o":"m 796 0 l 572 0 l 360 376 l 289 376 l 289 0 l 97 0 l 97 1069 l 367 1069 q 654 993 563 1069 q 746 749 746 917 l 746 693 q 702 506 746 574 q 561 407 658 438 l 796 0 m 288 553 l 367 553 q 506 588 467 553 q 544 703 544 624 l 544 739 q 510 857 544 821 q 369 893 475 893 l 288 893 l 288 553 z "},"S":{"ha":839,"x_min":61,"x_max":776,"o":"m 560 790 q 521 881 556 856 q 414 907 486 907 q 299 877 333 907 q 265 772 265 847 q 271 724 265 744 q 291 688 276 703 q 319 665 306 674 q 362 650 333 657 q 410 640 390 643 q 469 633 429 638 q 535 624 510 628 q 626 601 588 615 q 701 556 664 586 q 757 471 738 525 q 776 340 776 417 q 691 72 776 154 q 413 -11 606 -11 q 61 290 61 -11 l 254 290 q 293 194 257 225 q 417 164 329 164 q 544 203 504 164 q 585 333 585 243 q 577 380 585 360 q 551 414 569 400 q 518 437 533 428 q 472 453 503 446 q 424 463 440 460 q 370 469 407 465 q 321 475 333 474 q 72 771 72 507 q 160 997 72 919 q 414 1075 249 1075 q 654 1009 568 1075 q 753 790 740 943 l 560 790 z "},"T":{"ha":656,"x_min":11,"x_max":644,"o":"m 644 1065 l 644 894 l 424 894 l 424 0 l 233 0 l 233 894 l 11 894 l 11 1065 l 644 1065 z "},"U":{"ha":885,"x_min":83,"x_max":793,"o":"m 601 326 l 601 1068 l 793 1068 l 793 317 q 699 72 793 154 q 433 -10 606 -10 q 83 317 83 -10 l 83 1068 l 275 1068 l 275 326 q 433 160 275 160 q 559 204 517 160 q 601 326 601 249 z "},"V":{"ha":801,"x_min":13,"x_max":789,"o":"m 593 1068 l 789 1068 l 501 -1 l 301 -1 l 13 1068 l 208 1068 l 301 742 l 401 242 l 500 744 l 593 1068 z "},"W":{"ha":1286,"x_min":13,"x_max":1268,"o":"m 640 576 l 497 -1 l 296 -1 l 13 1069 l 210 1069 l 315 700 l 392 264 l 567 1035 l 714 1035 l 903 264 l 965 700 l 1071 1069 l 1268 1069 l 1000 -1 l 797 -1 l 640 576 z "},"X":{"ha":775,"x_min":13,"x_max":763,"o":"m 32 1069 l 240 1069 l 311 896 l 388 668 l 463 892 l 535 1069 l 743 1069 l 515 540 l 763 0 l 556 0 l 472 178 l 388 410 l 297 165 l 219 0 l 13 0 l 260 540 l 32 1069 z "},"Y":{"ha":725,"x_min":-3,"x_max":729,"o":"m 522 1069 l 729 1069 l 460 447 l 460 -1 l 269 -1 l 269 447 l -3 1069 l 204 1069 l 288 872 l 365 643 l 443 878 l 522 1069 z "},"Z":{"ha":732,"x_min":19,"x_max":714,"o":"m 78 1069 l 714 1069 l 303 169 l 690 169 l 690 0 l 19 0 l 438 899 l 78 899 l 78 1069 z "},"[":{"ha":511,"x_min":126,"x_max":465,"o":"m 465 -19 l 465 -206 l 126 -206 l 126 1099 l 465 1099 l 465 913 l 314 913 l 314 -19 l 465 -19 z "},"\\":{"ha":618,"x_min":63,"x_max":565,"o":"m 260 1068 l 565 -1 l 369 -1 l 63 1068 l 260 1068 z "},"]":{"ha":524,"x_min":58,"x_max":397,"o":"m 397 1099 l 397 -206 l 58 -206 l 58 -19 l 208 -19 l 208 913 l 58 913 l 58 1099 l 397 1099 z "},"^":{"ha":896,"x_min":75,"x_max":800,"o":"m 258 594 l 76 594 l 75 603 l 379 1060 l 488 1060 l 800 603 l 800 594 l 607 594 l 433 867 l 258 594 z "},"_":{"ha":728,"x_min":49,"x_max":682,"o":"m 682 186 l 682 -4 l 49 -4 l 49 186 l 682 186 z "},"`":{"ha":340,"x_min":0,"x_max":271,"o":"m 106 868 l 0 1057 l 192 1057 l 271 868 l 106 868 z "},"a":{"ha":754,"x_min":50,"x_max":675,"o":"m 493 326 q 231 236 231 353 q 343 164 231 164 q 493 326 476 164 m 257 538 l 75 538 q 141 755 65 686 q 368 824 217 824 q 601 744 526 824 q 675 504 675 665 l 675 0 l 519 0 l 501 94 q 286 -11 425 -11 q 115 49 181 -11 q 50 221 50 108 q 493 471 50 501 q 467 611 493 568 q 369 654 442 654 q 281 628 307 654 q 257 538 256 603 z "},"b":{"ha":786,"x_min":76,"x_max":710,"o":"m 630 73 q 590 34 630 73 q 392 -4 550 -4 q 155 73 233 -4 q 76 317 76 150 l 76 1069 l 267 1069 l 267 754 q 446 826 325 826 q 643 750 576 826 q 710 538 710 674 l 710 318 q 630 73 710 150 m 396 653 q 267 517 267 653 l 267 321 q 294 203 267 242 q 392 165 322 165 q 519 322 519 165 l 519 515 q 488 619 519 588 q 396 653 457 651 z "},"c":{"ha":768,"x_min":69,"x_max":706,"o":"m 706 514 l 525 514 q 496 619 525 586 q 397 653 467 653 q 292 613 322 653 q 261 493 261 574 l 261 315 q 289 195 261 235 q 388 156 317 156 q 492 189 461 156 q 525 296 524 222 l 706 296 q 628 59 706 132 q 388 -14 551 -14 q 147 64 225 -14 q 69 310 69 142 l 69 493 q 393 822 69 822 q 631 750 556 822 q 706 514 706 678 z "},"d":{"ha":815,"x_min":75,"x_max":708,"o":"m 708 0 l 551 0 l 538 90 q 344 -4 486 -4 q 75 313 75 -4 l 75 524 q 145 749 75 669 q 350 829 215 829 q 518 757 475 829 l 518 1069 l 708 1069 l 708 0 m 394 653 q 265 515 265 653 l 265 322 q 389 165 265 165 q 518 329 518 165 l 518 517 q 394 653 518 653 z "},"e":{"ha":783,"x_min":74,"x_max":710,"o":"m 522 251 l 710 251 q 631 60 710 122 q 392 -3 553 -3 q 151 74 229 -3 q 74 317 74 151 l 74 503 q 392 822 74 822 q 632 745 554 822 q 710 503 710 668 l 710 340 l 265 340 l 265 319 q 297 195 265 228 q 394 163 329 163 q 522 251 522 163 m 397 657 q 292 618 318 657 q 265 497 265 579 l 525 497 q 499 619 525 582 q 397 657 474 657 z "},"f":{"ha":504,"x_min":82,"x_max":471,"o":"m 471 1083 l 471 915 q 325 895 378 931 q 272 789 272 860 l 272 746 l 449 746 l 449 571 l 272 571 l 272 -1 l 82 -1 l 82 792 q 185 1023 82 939 q 471 1083 288 1107 z "},"g":{"ha":763,"x_min":69,"x_max":693,"o":"m 342 -4 q 140 72 211 -4 q 69 303 69 147 l 69 507 q 336 824 69 824 q 522 729 471 824 l 536 819 l 693 819 l 693 -21 q 383 -335 693 -335 q 88 -75 88 -335 l 269 -75 q 383 -172 269 -172 q 485 -135 456 -172 q 515 -19 515 -99 l 515 79 q 342 -4 461 -4 m 378 164 q 476 206 447 164 q 506 331 506 247 l 506 490 q 381 654 506 654 q 290 618 321 654 q 260 497 260 582 l 260 326 q 289 203 260 242 q 378 164 318 164 z "},"h":{"ha":775,"x_min":76,"x_max":699,"o":"m 699 0 l 508 0 l 508 515 q 479 620 508 589 q 389 653 450 651 q 267 517 267 653 l 267 0 l 76 0 l 76 1069 l 267 1069 l 267 754 q 439 826 325 826 q 634 750 569 826 q 699 538 699 674 l 699 0 z "},"i":{"ha":389,"x_min":88,"x_max":303,"o":"m 289 801 l 289 -1 l 99 -1 l 99 801 l 289 801 m 88 985 q 141 1078 88 1051 q 249 1078 194 1106 q 303 985 303 1051 q 269 908 303 936 q 195 879 236 879 q 121 907 154 879 q 88 985 88 935 z "},"j":{"ha":397,"x_min":1,"x_max":317,"o":"m 303 808 l 303 44 q 237 -198 303 -135 q 1 -261 171 -261 l 1 -99 q 90 -74 67 -99 q 113 40 113 -50 l 113 808 l 303 808 m 101 985 q 155 1078 101 1051 q 263 1078 208 1106 q 317 985 317 1051 q 283 908 317 936 q 209 879 250 879 q 135 907 168 879 q 101 985 101 935 z "},"k":{"ha":769,"x_min":76,"x_max":763,"o":"m 763 0 l 549 0 l 321 356 l 267 356 l 267 0 l 76 0 l 76 1072 l 267 1072 l 267 528 l 318 528 l 521 819 l 735 819 l 472 451 l 763 0 z "},"l":{"ha":425,"x_min":97,"x_max":383,"o":"m 97 300 l 97 1071 l 288 1071 l 288 303 q 306 208 288 233 q 383 183 325 183 l 383 0 q 157 63 217 0 q 97 300 97 125 z "},"m":{"ha":1282,"x_min":103,"x_max":1179,"o":"m 103 0 l 103 819 l 268 819 l 281 736 q 474 824 351 828 q 675 719 622 824 q 770 797 708 768 q 908 825 832 825 q 1179 504 1179 825 l 1179 0 l 989 0 l 989 504 q 867 653 989 653 q 773 620 807 653 q 738 506 739 588 l 738 0 l 547 0 l 547 504 q 425 653 547 653 q 293 511 293 653 l 293 0 l 103 0 z "},"n":{"ha":840,"x_min":110,"x_max":744,"o":"m 110 0 l 110 819 l 275 819 l 285 736 q 478 825 360 825 q 669 752 593 826 q 744 506 744 678 l 744 0 l 556 0 l 556 504 q 432 653 556 653 q 300 511 300 653 l 300 0 l 110 0 z "},"o":{"ha":775,"x_min":69,"x_max":706,"o":"m 628 63 q 589 25 628 63 q 388 -14 550 -14 q 147 63 225 -14 q 69 306 69 140 l 69 503 q 148 743 69 664 q 388 822 226 822 q 628 745 550 822 q 706 503 706 668 l 706 306 q 628 63 706 140 m 289 195 q 303 175 289 195 q 388 156 317 156 q 486 195 458 156 q 514 315 514 235 l 514 493 q 486 613 514 574 q 388 653 458 653 q 289 613 317 653 q 261 493 261 574 l 261 315 q 289 195 261 235 z "},"p":{"ha":810,"x_min":92,"x_max":725,"o":"m 92 819 l 249 819 l 263 731 q 456 825 314 825 q 725 508 725 825 l 725 297 q 655 72 725 151 q 450 -8 585 -8 q 282 64 325 -8 l 282 -249 l 92 -249 l 92 819 m 406 168 q 535 306 535 168 l 535 499 q 411 656 535 656 q 282 492 282 656 l 282 304 q 406 168 282 168 z "},"q":{"ha":789,"x_min":74,"x_max":707,"o":"m 153 749 q 193 788 153 749 q 392 826 233 826 q 628 749 550 826 q 707 506 707 672 l 707 -247 l 517 -247 l 517 68 q 338 -4 458 -4 q 140 72 207 -4 q 74 285 74 149 l 74 504 q 153 749 74 672 m 388 169 q 517 306 517 169 l 517 501 q 489 619 517 581 q 392 657 461 657 q 264 500 264 657 l 264 307 q 295 203 264 235 q 388 169 326 171 z "},"r":{"ha":535,"x_min":83,"x_max":494,"o":"m 494 824 l 494 622 q 335 596 397 635 q 274 468 274 557 l 274 -1 l 83 -1 l 83 819 l 258 819 l 267 733 q 358 808 293 779 q 494 824 422 836 z "},"s":{"ha":724,"x_min":53,"x_max":681,"o":"m 671 563 l 485 563 q 454 630 485 607 q 375 653 424 653 q 257 567 257 653 q 265 529 257 544 q 285 506 274 514 q 319 492 296 497 q 358 485 342 488 q 408 481 375 483 q 461 476 442 479 q 617 410 554 465 q 681 253 681 354 q 592 60 681 125 q 364 -4 504 -4 q 135 65 218 -4 q 53 253 53 133 l 246 253 q 278 185 249 207 q 372 163 307 163 q 457 188 426 163 q 488 246 488 213 q 485 267 488 257 q 475 283 482 276 q 461 296 468 290 q 441 306 454 301 q 418 313 428 310 q 391 318 408 315 q 363 322 374 321 q 331 326 351 324 q 299 329 310 328 q 64 557 64 360 q 149 757 64 690 q 374 824 233 824 q 595 751 519 824 q 671 563 671 679 z "},"t":{"ha":464,"x_min":89,"x_max":421,"o":"m 89 300 l 89 961 l 279 982 l 279 822 l 418 822 l 418 649 l 279 649 l 279 303 q 306 190 279 224 q 421 167 333 156 l 421 0 q 165 49 240 -19 q 89 300 89 118 z "},"u":{"ha":828,"x_min":92,"x_max":731,"o":"m 731 821 l 731 1 l 561 1 l 551 85 q 358 -4 476 -4 q 167 69 243 -6 q 92 315 92 143 l 92 821 l 281 821 l 281 317 q 404 168 281 168 q 536 310 536 168 l 536 821 l 731 821 z "},"v":{"ha":678,"x_min":4,"x_max":675,"o":"m 476 819 l 675 819 l 424 -1 l 256 -1 l 4 819 l 203 819 l 276 574 q 340 229 315 419 q 404 574 371 436 l 476 819 z "},"w":{"ha":1075,"x_min":11,"x_max":1063,"o":"m 469 819 l 611 819 l 674 557 q 735 229 710 403 q 796 574 764 443 l 867 819 l 1063 819 l 825 -1 l 643 -1 l 594 178 l 538 467 l 481 175 l 432 -1 l 251 -1 l 11 819 l 208 819 l 281 574 q 340 229 310 456 q 349 302 343 243 q 366 422 356 361 q 394 560 376 482 q 432 694 404 600 q 469 819 460 788 z "},"x":{"ha":732,"x_min":13,"x_max":721,"o":"m 211 0 l 13 0 l 260 417 l 22 819 l 222 819 l 297 693 q 367 550 343 617 q 439 697 389 613 l 511 819 l 708 819 l 471 418 l 721 0 l 518 0 l 446 122 q 365 283 404 186 q 282 119 336 210 l 211 0 z "},"y":{"ha":708,"x_min":21,"x_max":692,"o":"m 493 819 l 692 819 l 449 10 l 450 10 l 406 -149 q 334 -281 379 -239 q 227 -322 289 -324 q 86 -290 165 -321 l 115 -150 q 133 -155 118 -151 q 152 -159 147 -158 q 169 -161 157 -160 q 186 -161 181 -162 q 201 -157 192 -160 q 215 -148 210 -154 q 225 -133 219 -142 q 235 -110 231 -124 l 267 6 l 21 819 l 219 819 l 293 574 q 357 229 332 419 q 421 574 388 436 l 493 819 z "},"z":{"ha":708,"x_min":43,"x_max":681,"o":"m 43 0 l 43 22 l 397 651 l 79 651 l 79 818 l 681 818 l 681 794 l 328 178 l 681 178 l 681 0 l 43 0 z "},"{":{"ha":444,"x_min":28,"x_max":422,"o":"m 124 336 q 28 433 124 433 l 28 581 q 124 678 124 581 l 124 908 q 201 1106 114 1050 q 421 1126 289 1161 l 421 982 q 397 985 414 983 q 372 988 379 988 q 352 990 365 989 q 333 988 339 990 q 318 978 326 985 q 306 963 310 972 q 299 939 301 954 q 296 904 296 924 l 296 678 q 296 659 296 676 q 296 639 296 642 q 295 621 296 636 q 294 601 294 606 q 292 585 293 597 q 288 567 290 572 q 281 551 285 561 q 273 535 278 542 q 262 522 268 529 q 249 508 256 514 q 283 462 272 490 q 296 412 294 433 q 297 350 297 390 q 297 338 297 342 l 297 61 q 315 -7 297 13 q 360 -23 332 -26 q 422 -17 388 -19 l 422 -161 q 206 -146 288 -196 q 124 57 124 -96 l 124 336 z "},"|":{"ha":382,"x_min":94,"x_max":288,"o":"m 94 -261 l 94 1072 l 288 1072 l 288 -261 l 94 -261 z "},"}":{"ha":468,"x_min":38,"x_max":432,"o":"m 336 336 l 336 57 q 254 -146 336 -96 q 38 -161 172 -196 l 38 -17 q 100 -23 72 -19 q 145 -7 128 -26 q 163 61 163 13 l 163 338 q 163 350 163 342 q 164 412 163 390 q 176 462 165 433 q 211 508 188 490 q 176 560 188 528 q 165 610 165 593 q 164 678 164 628 l 164 904 q 161 943 164 926 q 150 969 158 960 q 137 983 142 978 q 116 989 132 989 q 94 989 100 989 q 66 985 88 989 q 39 982 44 982 l 39 1126 q 258 1106 171 1161 q 336 908 346 1050 l 336 678 q 432 581 336 581 l 432 433 q 336 336 336 433 z "},"~":{"ha":897,"x_min":74,"x_max":792,"o":"m 653 536 l 792 482 q 706 341 760 392 q 586 290 653 290 q 486 313 536 290 l 322 394 q 282 401 306 401 q 206 307 242 401 l 74 363 q 161 503 103 450 q 289 557 219 557 q 381 535 336 557 l 379 535 l 542 456 q 579 446 560 446 q 653 536 614 446 z "},"¡":{"ha":349,"x_min":68,"x_max":283,"o":"m 72 -262 l 86 535 l 261 535 l 261 -262 l 72 -262 m 250 785 q 267 771 250 785 q 283 707 283 757 q 250 628 283 657 q 176 600 217 600 q 101 628 135 600 q 68 707 68 657 q 101 784 68 756 q 176 813 135 813 q 250 785 217 813 z "},"¢":{"ha":747,"x_min":63,"x_max":699,"o":"m 699 503 l 514 503 q 386 653 514 653 q 283 614 311 653 q 254 493 254 575 l 254 315 q 282 195 254 235 q 381 156 310 156 q 483 194 453 156 q 514 306 513 232 l 699 306 q 481 -4 699 40 l 481 -114 l 286 -114 l 286 -6 q 63 306 63 36 l 63 503 q 288 813 63 768 l 288 932 l 482 932 l 482 813 q 699 503 699 767 z "},"£":{"ha":751,"x_min":24,"x_max":708,"o":"m 703 767 l 531 767 q 431 881 531 881 q 360 851 388 881 q 332 768 332 822 l 332 608 l 575 608 l 575 435 l 332 435 l 332 172 l 706 172 l 706 0 l 24 0 l 24 174 l 146 174 l 146 435 l 24 435 l 24 608 l 146 608 l 146 764 q 219 981 146 903 q 431 1060 293 1060 q 703 767 708 1060 z "},"¤":{"ha":750,"x_min":39,"x_max":689,"o":"m 363 304 q 449 342 418 304 q 481 439 481 379 q 449 538 481 500 q 363 575 418 575 q 277 534 308 575 q 246 439 246 493 q 277 344 246 385 q 363 304 308 304 m 249 164 l 169 79 l 39 222 l 110 301 q 83 436 83 367 q 113 575 83 508 q 70 621 99 590 q 40 653 42 651 l 169 800 l 247 714 q 364 740 304 740 q 481 714 421 740 q 517 753 486 719 q 558 800 547 788 l 689 651 l 618 576 q 646 439 646 519 q 617 301 646 367 l 689 224 l 557 79 l 481 164 q 363 139 424 139 q 249 164 303 139 z "},"¥":{"ha":713,"x_min":-11,"x_max":721,"o":"m 514 1069 l 721 1069 l 510 583 l 601 583 l 601 431 l 451 431 l 451 374 l 601 374 l 601 221 l 451 221 l 451 -1 l 261 -1 l 261 221 l 110 221 l 110 374 l 261 374 l 261 431 l 110 431 l 110 583 l 201 583 l -11 1069 l 196 1069 l 279 872 l 357 643 l 435 878 l 514 1069 z "},"¦":{"ha":286,"x_min":54,"x_max":239,"o":"m 54 567 l 54 1071 l 239 1071 l 239 567 l 54 567 m 239 468 l 239 -71 l 54 -71 l 54 468 l 239 468 z "},"§":{"ha":725,"x_min":46,"x_max":679,"o":"m 679 71 q 592 -131 679 -65 q 363 -196 504 -196 q 131 -120 217 -196 q 46 88 46 -44 l 239 88 q 378 -25 239 -25 q 459 -2 432 -25 q 486 54 486 21 q 440 138 486 114 q 281 165 394 161 q 113 222 181 169 q 46 382 46 274 q 74 476 46 431 q 143 546 101 521 q 76 602 106 563 q 46 692 46 642 q 133 898 46 825 q 358 971 221 971 q 588 899 504 971 q 672 703 672 826 l 479 703 q 452 779 479 757 q 361 801 425 801 q 272 780 306 801 q 239 715 239 758 q 249 673 239 690 q 274 646 260 656 q 319 631 288 636 q 372 623 350 625 q 442 618 394 621 q 612 564 544 614 q 679 404 679 514 q 560 242 679 299 q 679 71 679 178 m 242 392 q 267 338 242 360 q 328 311 292 317 q 400 310 364 306 q 461 335 436 314 q 486 388 486 356 q 461 438 486 417 q 400 464 436 458 q 328 465 364 469 q 267 442 292 461 q 242 392 242 422 z "},"¨":{"ha":618,"x_min":64,"x_max":575,"o":"m 64 1003 q 115 1088 64 1063 q 217 1090 165 1114 q 268 1003 268 1065 q 236 934 268 960 q 166 907 204 908 q 96 931 128 906 q 64 1003 64 957 m 371 1003 q 422 1088 371 1063 q 524 1090 472 1114 q 575 1003 575 1065 q 543 934 575 960 q 473 907 511 908 q 403 931 435 906 q 371 1003 371 957 z "},"©":{"ha":1169,"x_min":72,"x_max":1069,"o":"m 596 1019 l 574 1018 q 938 876 807 1019 q 1069 526 1069 733 q 941 161 1069 307 q 574 15 813 15 q 203 156 333 15 q 72 517 72 296 q 106 703 72 614 q 202 864 139 792 q 367 978 265 936 q 596 1019 469 1021 m 574 894 q 301 790 396 894 q 207 514 207 685 q 301 242 207 347 q 574 136 396 136 q 843 242 751 136 q 935 525 935 349 q 840 792 935 690 q 574 894 746 894 m 660 451 l 792 451 q 740 272 790 325 q 572 219 689 219 q 400 273 454 219 q 346 446 346 326 l 346 597 q 572 815 346 815 q 793 593 785 815 l 660 592 q 638 670 658 650 q 572 690 617 690 q 503 672 525 690 q 482 597 482 653 l 482 446 q 503 366 482 388 q 572 344 525 344 q 640 365 619 344 q 660 451 660 386 z "},"ª":{"ha":624,"x_min":49,"x_max":550,"o":"m 69 417 l 549 417 l 549 275 l 69 275 l 69 417 m 550 824 l 550 493 l 424 493 l 417 538 q 286 492 368 492 q 49 724 49 492 l 49 824 q 117 1006 49 949 q 301 1064 185 1064 q 550 824 550 1064 m 406 824 q 378 908 406 885 q 301 931 351 931 q 194 824 194 931 l 194 735 q 217 653 194 676 q 286 629 240 629 q 376 658 346 629 q 406 767 406 688 l 406 824 z "},"«":{"ha":717,"x_min":29,"x_max":678,"o":"m 29 461 l 225 774 l 415 774 l 221 460 l 415 147 l 225 147 l 29 461 m 292 461 l 488 774 l 678 774 l 483 460 l 678 147 l 488 147 l 292 461 z "},"¬":{"ha":696,"x_min":79,"x_max":619,"o":"m 619 242 l 454 242 l 454 396 l 79 396 l 79 557 l 619 557 l 619 242 z "},"­":{"ha":767,"x_min":101,"x_max":672,"o":"m 672 551 l 672 392 l 101 392 l 101 551 l 672 551 z "},"®":{"ha":1164,"x_min":60,"x_max":1082,"o":"m 571 1004 q 946 856 810 1004 q 1082 488 1082 708 q 945 119 1082 268 q 571 -29 808 -29 q 197 119 335 -29 q 60 488 60 268 q 197 856 60 708 q 571 1004 335 1004 m 842 771 q 792 826 842 771 q 571 882 743 882 q 301 772 399 882 q 203 490 204 661 q 301 208 203 319 q 571 97 399 97 q 842 208 743 97 q 940 489 940 319 q 842 771 940 660 m 803 210 l 649 210 l 565 378 l 518 378 l 518 208 l 386 208 l 386 783 l 581 783 q 735 742 679 783 q 790 592 790 700 l 790 581 q 690 403 790 436 l 803 210 m 581 658 l 518 658 l 518 500 l 581 500 q 637 517 619 500 q 654 581 654 533 l 654 592 q 645 635 654 621 q 623 653 636 650 q 581 658 610 657 z "},"¯":{"ha":535,"x_min":93,"x_max":446,"o":"m 93 1076 l 446 1076 l 446 915 l 93 915 l 93 1076 z "},"°":{"ha":453,"x_min":19,"x_max":415,"o":"m 217 979 q 160 956 181 979 q 138 903 139 932 q 158 851 138 875 q 217 828 179 828 q 283 865 264 828 q 283 941 303 903 q 217 979 264 979 m 218 1089 q 311 1069 269 1089 q 374 1016 353 1049 q 405 944 394 983 q 406 865 415 904 q 375 792 396 825 q 313 740 354 760 q 219 719 272 719 q 92 758 143 719 q 31 850 42 796 q 32 958 19 904 q 95 1051 44 1013 q 218 1089 146 1089 z "},"±":{"ha":690,"x_min":68,"x_max":639,"o":"m 71 161 l 628 161 l 628 -6 l 71 -6 l 71 161 m 639 606 l 639 447 l 439 447 l 439 242 l 268 242 l 268 447 l 68 447 l 68 606 l 268 606 l 268 813 l 439 813 l 439 606 l 639 606 z "},"²":{"ha":440,"x_min":29,"x_max":390,"o":"m 36 481 l 36 614 q 78 740 36 694 q 188 819 121 786 q 254 900 254 853 q 213 944 254 944 q 172 878 167 944 l 42 878 q 215 1071 29 1071 q 343 1028 296 1071 q 390 903 390 985 q 243 706 390 771 q 224 697 238 703 q 204 687 210 690 q 190 674 199 683 q 179 651 182 665 q 176 615 176 636 l 378 615 l 378 481 l 36 481 z "},"³":{"ha":433,"x_min":17,"x_max":397,"o":"m 17 665 l 153 665 q 167 615 154 628 q 204 601 181 601 q 254 661 254 601 q 204 718 254 718 l 157 718 l 157 846 l 203 846 q 244 899 244 846 q 204 940 244 940 q 163 890 163 940 l 28 890 q 208 1069 28 1067 q 336 1027 288 1069 q 385 899 385 985 q 369 836 385 869 q 324 788 353 803 q 397 661 397 750 q 346 521 397 572 q 203 469 294 469 q 61 515 106 469 q 17 665 17 561 z "},"´":{"ha":340,"x_min":47,"x_max":318,"o":"m 318 1057 l 213 868 l 47 868 l 126 1057 l 318 1057 z "},"µ":{"ha":728,"x_min":50,"x_max":674,"o":"m 50 -282 l 50 807 l 246 807 l 246 303 q 367 160 246 160 q 451 196 424 160 q 479 318 479 232 l 479 806 l 674 806 l 674 0 l 513 0 l 497 56 q 371 -17 460 -14 q 239 44 282 -21 l 239 -282 l 50 -282 z "},"¶":{"ha":961,"x_min":25,"x_max":922,"o":"m 474 886 l 474 -267 l 278 -267 l 278 332 q 28 704 25 367 q 44 840 28 778 q 94 956 60 901 q 192 1041 128 1010 q 346 1072 257 1072 l 922 1072 l 922 886 l 811 886 l 811 -267 l 618 -267 l 618 886 l 474 886 z "},"·":{"ha":296,"x_min":31,"x_max":267,"o":"m 31 456 q 67 539 31 508 q 149 570 104 569 q 230 541 193 571 q 267 456 267 511 q 230 373 267 404 q 149 341 193 342 q 67 370 104 340 q 31 456 31 400 z "},"¸":{"ha":408,"x_min":-15,"x_max":381,"o":"m 75 -71 l 121 79 l 265 79 l 239 -1 q 351 -58 321 -7 q 364 -179 381 -110 q 303 -276 350 -237 q 199 -322 256 -314 q 83 -312 143 -331 q -15 -249 24 -293 l 47 -151 q 98 -181 65 -169 q 164 -185 131 -192 q 207 -147 197 -178 q 175 -94 214 -115 q 75 -71 136 -74 z "},"¹":{"ha":368,"x_min":31,"x_max":333,"o":"m 31 488 l 31 606 l 119 606 l 119 956 l 47 956 l 47 1072 l 250 1072 l 250 606 l 333 606 l 333 488 l 31 488 z "},"º":{"ha":607,"x_min":49,"x_max":540,"o":"m 296 582 q 119 647 190 582 q 49 825 49 713 q 119 1002 49 938 q 294 1067 189 1067 q 471 1002 401 1067 q 540 826 540 938 q 470 648 540 714 q 296 582 400 582 m 218 743 q 233 727 218 743 q 296 711 247 711 q 374 742 344 711 q 404 825 404 774 q 372 910 404 876 q 294 943 340 943 q 219 910 250 943 q 189 826 189 876 q 218 743 189 775 m 74 522 l 519 522 l 519 385 l 74 385 l 74 522 z "},"»":{"ha":717,"x_min":36,"x_max":685,"o":"m 489 774 l 685 461 l 489 147 l 299 147 l 493 460 l 299 774 l 489 774 m 226 774 l 422 461 l 226 147 l 36 147 l 231 460 l 36 774 l 226 774 z "},"¼":{"ha":1051,"x_min":61,"x_max":993,"o":"m 188 -3 l 694 1064 l 846 1064 l 336 -3 l 188 -3 m 797 110 l 575 110 l 560 201 l 789 574 l 931 574 l 931 238 l 993 238 l 993 110 l 931 110 l 931 0 l 797 0 l 797 110 m 803 238 l 803 328 l 810 406 l 718 238 l 803 238 m 61 478 l 61 597 l 146 597 l 146 944 l 82 944 l 82 1063 l 276 1063 l 276 597 l 356 597 l 356 478 l 61 478 z "},"½":{"ha":1092,"x_min":61,"x_max":1028,"o":"m 188 -3 l 694 1064 l 846 1064 l 336 -3 l 188 -3 m 61 478 l 61 597 l 146 597 l 146 944 l 82 944 l 82 1063 l 276 1063 l 276 597 l 356 597 l 356 478 l 61 478 m 674 3 l 674 136 q 716 263 674 217 q 825 342 758 308 q 892 422 892 375 q 850 467 892 467 q 810 400 804 467 l 679 400 q 853 593 667 593 q 981 550 933 593 q 1028 425 1028 507 q 881 228 1028 293 q 862 219 879 226 q 841 208 844 211 q 828 194 838 204 q 817 169 819 183 q 814 133 814 154 l 1024 133 l 1024 3 l 674 3 z "},"¾":{"ha":1118,"x_min":65,"x_max":1053,"o":"m 247 -3 l 754 1064 l 906 1064 l 396 -3 l 247 -3 m 857 110 l 635 110 l 619 201 l 849 574 l 990 574 l 990 238 l 1053 238 l 1053 110 l 990 110 l 990 0 l 857 0 l 857 110 m 863 238 l 863 328 l 869 406 l 778 238 l 863 238 m 65 665 l 201 665 q 216 615 203 628 q 253 601 229 601 q 303 661 303 601 q 253 718 303 718 l 206 718 l 206 846 l 251 846 q 293 899 293 846 q 253 940 293 940 q 211 890 211 940 l 76 890 q 257 1069 76 1067 q 385 1027 336 1069 q 433 899 433 985 q 417 836 433 869 q 372 788 401 803 q 446 661 446 750 q 394 521 446 572 q 251 469 343 469 q 110 515 154 469 q 65 665 65 561 z "},"¿":{"ha":710,"x_min":40,"x_max":671,"o":"m 481 19 l 671 19 q 358 -285 671 -279 q 128 -209 217 -285 q 40 26 40 -133 l 40 110 q 65 249 40 193 q 125 335 90 306 q 195 388 160 364 q 256 449 231 413 q 281 540 281 486 l 472 540 q 447 410 472 465 q 386 322 422 354 q 315 262 350 289 q 254 199 279 235 q 229 115 229 163 l 229 28 q 356 -110 229 -110 q 481 19 481 -110 m 450 793 q 467 779 450 793 q 483 715 483 765 q 450 637 483 665 q 376 608 417 608 q 301 637 335 608 q 268 715 268 665 q 301 792 268 764 q 376 821 335 821 q 450 793 417 821 z "},"À":{"ha":803,"x_min":13,"x_max":790,"o":"m 499 1068 l 790 0 l 593 0 l 539 189 l 265 189 l 210 0 l 13 0 l 308 1068 l 499 1068 m 313 376 l 490 376 l 401 772 l 313 376 m 314 1128 l 208 1317 l 400 1317 l 479 1128 l 314 1128 z "},"Á":{"ha":803,"x_min":13,"x_max":790,"o":"m 499 1068 l 790 0 l 593 0 l 539 189 l 265 189 l 210 0 l 13 0 l 308 1068 l 499 1068 m 313 376 l 490 376 l 401 772 l 313 376 m 581 1318 l 475 1129 l 310 1129 l 389 1318 l 581 1318 z "},"Â":{"ha":803,"x_min":13,"x_max":790,"o":"m 499 1068 l 790 0 l 593 0 l 539 189 l 265 189 l 210 0 l 13 0 l 308 1068 l 499 1068 m 313 376 l 490 376 l 401 772 l 313 376 m 396 1199 l 331 1136 l 154 1136 l 154 1150 l 351 1329 l 440 1329 l 636 1150 l 636 1136 l 458 1136 l 396 1199 z "},"Ã":{"ha":803,"x_min":13,"x_max":790,"o":"m 499 1068 l 790 0 l 593 0 l 539 189 l 265 189 l 210 0 l 13 0 l 308 1068 l 499 1068 m 313 376 l 490 376 l 401 772 l 313 376 m 292 1140 l 179 1199 q 261 1308 201 1271 q 389 1314 321 1344 l 457 1281 q 521 1317 499 1261 l 638 1268 q 565 1148 618 1190 q 436 1136 511 1106 l 361 1172 q 328 1176 351 1183 q 292 1140 304 1169 z "},"Ä":{"ha":803,"x_min":13,"x_max":790,"o":"m 499 1068 l 790 0 l 593 0 l 539 189 l 265 189 l 210 0 l 13 0 l 308 1068 l 499 1068 m 313 376 l 490 376 l 401 772 l 313 376 m 138 1222 q 188 1308 138 1282 q 290 1309 239 1333 q 342 1222 342 1285 q 310 1153 342 1179 q 240 1126 278 1128 q 169 1151 201 1125 q 138 1222 138 1176 m 444 1222 q 495 1308 444 1282 q 597 1309 546 1333 q 649 1222 649 1285 q 617 1153 649 1179 q 547 1126 585 1128 q 476 1151 508 1125 q 444 1222 444 1176 z "},"Å":{"ha":803,"x_min":13,"x_max":790,"o":"m 233 1153 q 283 1273 233 1229 q 401 1317 332 1317 q 522 1274 474 1317 q 571 1154 571 1231 q 510 1024 571 1069 l 790 0 l 593 0 l 539 189 l 265 189 l 210 0 l 13 0 l 294 1021 q 233 1153 232 1068 m 313 376 l 490 376 l 401 772 l 313 376 m 456 1183 q 447 1198 456 1183 q 401 1213 439 1213 q 349 1183 364 1213 q 349 1123 333 1153 q 401 1093 364 1093 q 457 1123 442 1093 q 456 1183 472 1153 z "},"Æ":{"ha":1046,"x_min":4,"x_max":997,"o":"m 371 1072 l 978 1072 l 978 906 l 674 906 l 674 629 l 949 629 l 949 457 l 674 457 l 674 175 l 997 175 l 997 0 l 486 0 l 486 201 l 282 201 l 214 0 l 4 0 l 371 1072 m 329 376 l 486 376 l 486 883 l 329 376 z "},"Ç":{"ha":865,"x_min":82,"x_max":804,"o":"m 613 331 l 804 331 q 735 94 804 174 q 514 0 665 14 l 496 -53 q 608 -104 578 -57 q 621 -215 638 -151 q 531 -323 603 -287 q 376 -346 460 -358 q 242 -279 293 -333 l 304 -190 q 355 -217 322 -207 q 421 -220 388 -226 q 464 -186 454 -214 q 432 -137 471 -157 q 332 -117 393 -118 l 371 0 q 151 89 219 13 q 82 317 82 165 l 82 751 q 164 997 82 922 q 439 1071 246 1071 q 719 994 633 1071 q 804 739 804 917 l 613 739 q 578 863 613 825 q 439 901 543 901 q 307 863 340 901 q 274 742 274 825 l 274 326 q 307 205 274 243 q 439 167 340 167 q 575 206 538 167 q 613 331 613 246 z "},"È":{"ha":783,"x_min":97,"x_max":732,"o":"m 97 1069 l 713 1069 l 713 903 l 289 903 l 289 628 l 650 628 l 650 456 l 289 456 l 289 174 l 732 174 l 732 -1 l 97 -1 l 97 1069 m 317 1136 l 211 1325 l 403 1325 l 482 1136 l 317 1136 z "},"É":{"ha":783,"x_min":97,"x_max":732,"o":"m 97 1069 l 713 1069 l 713 903 l 289 903 l 289 628 l 650 628 l 650 456 l 289 456 l 289 174 l 732 174 l 732 -1 l 97 -1 l 97 1069 m 565 1326 l 460 1138 l 294 1138 l 374 1326 l 565 1326 z "},"Ê":{"ha":783,"x_min":97,"x_max":732,"o":"m 97 1069 l 713 1069 l 713 903 l 289 903 l 289 628 l 650 628 l 650 456 l 289 456 l 289 174 l 732 174 l 732 -1 l 97 -1 l 97 1069 m 381 1200 l 315 1138 l 139 1138 l 139 1151 l 336 1331 l 425 1331 l 621 1151 l 621 1138 l 443 1138 l 381 1200 z "},"Ë":{"ha":783,"x_min":97,"x_max":732,"o":"m 97 1069 l 713 1069 l 713 903 l 289 903 l 289 628 l 650 628 l 650 456 l 289 456 l 289 174 l 732 174 l 732 -1 l 97 -1 l 97 1069 m 195 1148 q 170 1159 195 1148 q 146 1229 146 1171 q 195 1312 146 1288 q 294 1313 244 1336 q 344 1229 344 1289 q 294 1149 344 1174 q 195 1148 244 1125 m 443 1229 q 492 1312 443 1288 q 591 1313 542 1336 q 640 1229 640 1289 q 610 1163 640 1188 q 542 1138 579 1139 q 474 1160 504 1136 q 443 1229 443 1185 z "},"Ì":{"ha":388,"x_min":17,"x_max":290,"o":"m 290 1068 l 290 -1 l 97 -1 l 97 1068 l 290 1068 m 122 1133 l 17 1322 l 208 1322 l 288 1133 l 122 1133 z "},"Í":{"ha":388,"x_min":97,"x_max":372,"o":"m 290 1068 l 290 -1 l 97 -1 l 97 1068 l 290 1068 m 372 1322 l 267 1133 l 101 1133 l 181 1322 l 372 1322 z "},"Î":{"ha":388,"x_min":-47,"x_max":435,"o":"m 290 1068 l 290 -1 l 97 -1 l 97 1068 l 290 1068 m 194 1199 l 129 1136 l -47 1136 l -47 1150 l 150 1329 l 239 1329 l 435 1150 l 435 1136 l 257 1136 l 194 1199 z "},"Ï":{"ha":388,"x_min":-56,"x_max":456,"o":"m 290 1068 l 290 -1 l 97 -1 l 97 1068 l 290 1068 m -56 1226 q -5 1312 -56 1286 q 97 1313 46 1338 q 149 1226 149 1289 q 117 1158 149 1183 q 47 1131 85 1132 q -24 1155 8 1129 q -56 1226 -56 1181 m 251 1226 q 302 1312 251 1286 q 404 1313 353 1338 q 456 1226 456 1289 q 424 1158 456 1183 q 353 1131 392 1132 q 283 1155 315 1129 q 251 1226 251 1181 z "},"Ð":{"ha":889,"x_min":10,"x_max":815,"o":"m 99 1069 l 450 1069 q 730 994 644 1069 q 815 750 815 919 l 815 314 q 728 74 815 149 q 450 0 642 0 l 99 0 l 99 426 l 10 426 l 10 586 l 99 586 l 99 1069 m 289 174 l 450 174 q 587 208 550 174 q 624 324 624 243 l 624 740 q 590 859 624 824 q 453 894 557 894 l 289 894 l 289 586 l 435 586 l 435 426 l 289 426 l 289 174 z "},"Ñ":{"ha":865,"x_min":96,"x_max":769,"o":"m 769 1068 l 769 0 l 583 0 l 269 678 l 286 272 l 286 0 l 96 0 l 96 1068 l 286 1068 l 600 364 l 579 815 l 579 1068 l 769 1068 m 307 1142 l 194 1200 q 276 1309 217 1272 q 404 1315 336 1346 l 472 1282 q 536 1318 514 1263 l 653 1269 q 580 1149 633 1192 q 451 1138 526 1107 l 376 1174 q 343 1178 367 1185 q 307 1142 319 1171 z "},"Ò":{"ha":890,"x_min":82,"x_max":804,"o":"m 439 -10 q 166 67 250 -10 q 82 310 82 143 l 82 763 q 164 1008 82 933 q 439 1082 246 1082 q 719 1007 633 1082 q 804 763 804 932 l 804 310 q 717 67 804 144 q 439 -10 629 -10 m 307 198 q 324 179 307 198 q 439 160 340 160 q 575 199 538 160 q 613 319 613 238 l 613 753 q 578 874 613 835 q 439 913 543 913 q 308 873 342 913 q 274 753 274 833 l 274 319 q 307 198 274 236 m 375 1149 l 269 1338 l 461 1338 l 540 1149 l 375 1149 z "},"Ó":{"ha":890,"x_min":82,"x_max":804,"o":"m 439 -10 q 166 67 250 -10 q 82 310 82 143 l 82 763 q 164 1008 82 933 q 439 1082 246 1082 q 719 1007 633 1082 q 804 763 804 932 l 804 310 q 717 67 804 144 q 439 -10 629 -10 m 307 198 q 324 179 307 198 q 439 160 340 160 q 575 199 538 160 q 613 319 613 238 l 613 753 q 578 874 613 835 q 439 913 543 913 q 308 873 342 913 q 274 753 274 833 l 274 319 q 307 198 274 236 m 631 1335 l 525 1146 l 360 1146 l 439 1335 l 631 1335 z "},"Ô":{"ha":890,"x_min":82,"x_max":804,"o":"m 439 -10 q 166 67 250 -10 q 82 310 82 143 l 82 763 q 164 1008 82 933 q 439 1082 246 1082 q 719 1007 633 1082 q 804 763 804 932 l 804 310 q 717 67 804 144 q 439 -10 629 -10 m 307 198 q 324 179 307 198 q 439 160 340 160 q 575 199 538 160 q 613 319 613 238 l 613 753 q 578 874 613 835 q 439 913 543 913 q 308 873 342 913 q 274 753 274 833 l 274 319 q 307 198 274 236 m 451 1208 l 386 1146 l 210 1146 l 210 1160 l 407 1339 l 496 1339 l 692 1160 l 692 1146 l 514 1146 l 451 1208 z "},"Õ":{"ha":890,"x_min":82,"x_max":804,"o":"m 439 -10 q 166 67 250 -10 q 82 310 82 143 l 82 763 q 164 1008 82 933 q 439 1082 246 1082 q 719 1007 633 1082 q 804 763 804 932 l 804 310 q 717 67 804 144 q 439 -10 629 -10 m 307 198 q 324 179 307 198 q 439 160 340 160 q 575 199 538 160 q 613 319 613 238 l 613 753 q 578 874 613 835 q 439 913 543 913 q 308 873 342 913 q 274 753 274 833 l 274 319 q 307 198 274 236 m 328 1153 l 215 1211 q 297 1320 238 1283 q 425 1326 357 1357 l 493 1293 q 557 1329 535 1274 l 674 1281 q 601 1160 654 1203 q 472 1149 547 1118 l 397 1185 q 364 1189 388 1196 q 328 1153 340 1182 z "},"Ö":{"ha":890,"x_min":82,"x_max":804,"o":"m 439 -10 q 166 67 250 -10 q 82 310 82 143 l 82 763 q 164 1008 82 933 q 439 1082 246 1082 q 719 1007 633 1082 q 804 763 804 932 l 804 310 q 717 67 804 144 q 439 -10 629 -10 m 307 198 q 324 179 307 198 q 439 160 340 160 q 575 199 538 160 q 613 319 613 238 l 613 753 q 578 874 613 835 q 439 913 543 913 q 308 873 342 913 q 274 753 274 833 l 274 319 q 307 198 274 236 m 192 1233 q 242 1319 192 1293 q 344 1320 293 1344 q 396 1233 396 1296 q 364 1165 396 1190 q 294 1138 332 1139 q 224 1162 256 1136 q 192 1233 192 1188 m 499 1233 q 549 1319 499 1293 q 651 1320 600 1344 q 703 1233 703 1296 q 671 1165 703 1190 q 601 1138 639 1139 q 531 1162 563 1136 q 499 1233 499 1188 z "},"×":{"ha":631,"x_min":50,"x_max":574,"o":"m 174 700 l 315 557 l 457 697 l 568 588 l 422 443 l 574 294 l 453 181 l 308 326 l 168 185 l 53 293 l 197 439 l 50 583 l 174 700 z "},"Ø":{"ha":890,"x_min":82,"x_max":804,"o":"m 439 -10 q 324 -1 375 -10 l 293 -86 l 135 -86 l 185 51 q 82 310 82 126 l 82 763 q 164 1008 82 933 q 439 1082 246 1082 q 557 1074 503 1082 l 592 1169 l 751 1169 l 697 1022 q 804 763 804 950 l 804 310 q 717 67 804 144 q 439 -10 629 -10 m 439 160 q 575 199 538 160 q 613 319 613 238 l 613 753 q 612 769 613 758 q 611 785 611 781 l 385 164 q 439 160 408 160 m 274 319 l 274 296 l 496 908 q 439 913 471 913 q 308 873 342 913 q 274 753 274 833 l 274 319 z "},"Ù":{"ha":885,"x_min":83,"x_max":793,"o":"m 601 326 l 601 1068 l 793 1068 l 793 317 q 699 72 793 154 q 433 -10 606 -10 q 83 317 83 -10 l 83 1068 l 275 1068 l 275 326 q 433 160 275 160 q 559 204 517 160 q 601 326 601 249 m 361 1135 l 256 1324 l 447 1324 l 526 1135 l 361 1135 z "},"Ú":{"ha":885,"x_min":83,"x_max":793,"o":"m 601 326 l 601 1068 l 793 1068 l 793 317 q 699 72 793 154 q 433 -10 606 -10 q 83 317 83 -10 l 83 1068 l 275 1068 l 275 326 q 433 160 275 160 q 559 204 517 160 q 601 326 601 249 m 621 1331 l 515 1142 l 350 1142 l 429 1331 l 621 1331 z "},"Û":{"ha":885,"x_min":83,"x_max":793,"o":"m 601 326 l 601 1068 l 793 1068 l 793 317 q 699 72 793 154 q 433 -10 606 -10 q 83 317 83 -10 l 83 1068 l 275 1068 l 275 326 q 433 160 275 160 q 559 204 517 160 q 601 326 601 249 m 444 1207 l 379 1144 l 203 1144 l 203 1158 l 400 1338 l 489 1338 l 685 1158 l 685 1144 l 507 1144 l 444 1207 z "},"Ü":{"ha":885,"x_min":83,"x_max":793,"o":"m 601 326 l 601 1068 l 793 1068 l 793 317 q 699 72 793 154 q 433 -10 606 -10 q 83 317 83 -10 l 83 1068 l 275 1068 l 275 326 q 433 160 275 160 q 559 204 517 160 q 601 326 601 249 m 182 1240 q 233 1326 182 1300 q 335 1327 283 1351 q 386 1240 386 1303 q 354 1172 386 1197 q 284 1144 322 1146 q 214 1169 246 1143 q 182 1240 182 1194 m 489 1240 q 540 1326 489 1300 q 642 1327 590 1351 q 693 1240 693 1303 q 661 1172 693 1197 q 591 1144 629 1146 q 521 1169 553 1143 q 489 1240 489 1194 z "},"Ý":{"ha":731,"x_min":-3,"x_max":729,"o":"m 522 1069 l 729 1069 l 460 447 l 460 -1 l 269 -1 l 269 447 l -3 1069 l 204 1069 l 288 872 l 365 643 l 443 878 l 522 1069 m 536 1325 l 431 1136 l 265 1136 l 344 1325 l 536 1325 z "},"Þ":{"ha":804,"x_min":97,"x_max":746,"o":"m 97 1072 l 292 1072 l 292 903 l 367 903 q 654 827 563 903 q 746 583 746 751 l 746 485 q 652 240 746 319 q 367 161 558 161 l 293 161 l 293 0 l 97 0 l 97 1072 m 292 346 l 367 346 q 510 381 468 346 q 551 494 551 417 l 551 574 q 513 691 551 654 q 369 728 475 728 l 292 728 l 292 346 z "},"ß":{"ha":746,"x_min":71,"x_max":728,"o":"m 267 797 l 267 0 l 71 0 l 71 797 q 363 1085 71 1085 q 649 797 649 1085 q 563 593 649 654 q 684 485 640 557 q 728 322 728 414 q 645 74 728 149 q 371 0 563 0 l 328 0 l 328 167 l 374 167 q 497 205 464 167 q 529 321 529 243 q 495 434 529 399 q 388 469 461 469 l 336 469 l 336 646 l 338 646 q 430 693 403 646 q 457 797 457 740 q 360 917 457 917 q 267 797 267 917 z "},"à":{"ha":754,"x_min":50,"x_max":675,"o":"m 493 326 q 231 236 231 353 q 343 164 231 164 q 493 326 476 164 m 257 538 l 75 538 q 141 755 65 686 q 368 824 217 824 q 601 744 526 824 q 675 504 675 665 l 675 0 l 519 0 l 501 94 q 286 -11 425 -11 q 115 49 181 -11 q 50 221 50 108 q 493 471 50 501 q 467 611 493 568 q 369 654 442 654 q 281 628 307 654 q 257 538 256 603 m 303 894 l 197 1083 l 389 1083 l 468 894 l 303 894 z "},"á":{"ha":754,"x_min":50,"x_max":675,"o":"m 493 326 q 231 236 231 353 q 343 164 231 164 q 493 326 476 164 m 257 538 l 75 538 q 141 755 65 686 q 368 824 217 824 q 601 744 526 824 q 675 504 675 665 l 675 0 l 519 0 l 501 94 q 286 -11 425 -11 q 115 49 181 -11 q 50 221 50 108 q 493 471 50 501 q 467 611 493 568 q 369 654 442 654 q 281 628 307 654 q 257 538 256 603 m 543 1081 l 438 892 l 272 892 l 351 1081 l 543 1081 z "},"â":{"ha":754,"x_min":50,"x_max":675,"o":"m 493 326 q 231 236 231 353 q 343 164 231 164 q 493 326 476 164 m 257 538 l 75 538 q 141 755 65 686 q 368 824 217 824 q 601 744 526 824 q 675 504 675 665 l 675 0 l 519 0 l 501 94 q 286 -11 425 -11 q 115 49 181 -11 q 50 221 50 108 q 493 471 50 501 q 467 611 493 568 q 369 654 442 654 q 281 628 307 654 q 257 538 256 603 m 378 960 l 313 897 l 136 897 l 136 911 l 333 1090 l 422 1090 l 618 911 l 618 897 l 440 897 l 378 960 z "},"ã":{"ha":754,"x_min":50,"x_max":675,"o":"m 493 326 q 231 236 231 353 q 343 164 231 164 q 493 326 476 164 m 257 538 l 75 538 q 141 755 65 686 q 368 824 217 824 q 601 744 526 824 q 675 504 675 665 l 675 0 l 519 0 l 501 94 q 286 -11 425 -11 q 115 49 181 -11 q 50 221 50 108 q 493 471 50 501 q 467 611 493 568 q 369 654 442 654 q 281 628 307 654 q 257 538 256 603 m 257 908 l 147 967 q 228 1072 169 1036 q 351 1079 286 1108 l 418 1046 q 481 1082 460 1029 l 594 1035 q 523 917 575 958 q 399 906 471 875 l 325 940 q 292 944 315 951 q 257 908 269 938 z "},"ä":{"ha":754,"x_min":50,"x_max":675,"o":"m 493 326 q 231 236 231 353 q 343 164 231 164 q 493 326 476 164 m 257 538 l 75 538 q 141 755 65 686 q 368 824 217 824 q 601 744 526 824 q 675 504 675 665 l 675 0 l 519 0 l 501 94 q 286 -11 425 -11 q 115 49 181 -11 q 50 221 50 108 q 493 471 50 501 q 467 611 493 568 q 369 654 442 654 q 281 628 307 654 q 257 538 256 603 m 129 997 q 160 1066 129 1040 q 228 1092 190 1092 q 296 1068 265 1093 q 326 997 326 1043 q 296 931 326 956 q 228 906 265 907 q 160 928 190 904 q 129 997 129 953 m 425 997 q 456 1066 425 1040 q 523 1092 486 1092 q 590 1068 560 1093 q 621 997 621 1043 q 572 917 621 942 q 474 916 522 893 q 425 997 425 939 z "},"å":{"ha":754,"x_min":50,"x_max":675,"o":"m 493 326 q 231 236 231 353 q 343 164 231 164 q 493 326 476 164 m 257 538 l 75 538 q 141 755 65 686 q 368 824 217 824 q 601 744 526 824 q 675 504 675 665 l 675 0 l 519 0 l 501 94 q 286 -11 425 -11 q 115 49 181 -11 q 50 221 50 108 q 493 471 50 501 q 467 611 493 568 q 369 654 442 654 q 281 628 307 654 q 257 538 256 603 m 217 1003 q 265 1105 217 1068 q 382 1142 314 1142 q 499 1106 451 1142 q 547 1004 547 1069 q 499 903 547 940 q 381 865 450 865 q 263 902 310 865 q 217 1003 215 939 m 382 1054 q 331 1028 346 1054 q 331 978 315 1003 q 382 953 346 953 q 436 978 421 953 q 435 1028 451 1003 q 382 1054 419 1054 z "},"æ":{"ha":1179,"x_min":50,"x_max":1110,"o":"m 922 251 l 1110 251 q 793 -11 1110 -11 q 563 115 621 -11 q 446 13 507 36 q 286 -11 385 -11 q 115 49 181 -11 q 50 221 50 108 q 493 471 50 501 l 493 478 q 465 613 492 571 q 369 654 439 654 q 283 630 307 654 q 260 540 258 606 l 78 540 q 142 756 68 689 q 368 824 217 824 q 586 711 519 824 q 801 822 653 822 q 1110 503 1110 822 l 1110 340 l 665 340 l 665 319 q 699 192 665 226 q 796 157 732 157 q 922 251 922 157 m 807 657 q 697 617 728 657 q 665 497 665 576 l 932 497 q 906 613 932 569 q 807 657 881 657 m 493 326 q 231 236 231 353 q 343 164 231 164 q 493 326 476 164 z "},"ç":{"ha":768,"x_min":69,"x_max":706,"o":"m 288 -121 l 322 -10 q 131 82 193 4 q 69 310 69 160 l 69 493 q 393 822 69 822 q 631 750 556 822 q 706 514 706 678 l 525 514 q 496 619 525 586 q 397 653 467 653 q 292 613 322 653 q 261 493 261 574 l 261 315 q 289 195 261 235 q 388 156 317 156 q 492 189 461 156 q 525 296 524 222 l 706 296 q 646 79 706 153 q 463 -10 586 6 l 447 -58 q 556 -110 528 -62 q 569 -222 585 -158 q 481 -326 551 -293 q 330 -347 411 -360 q 199 -279 249 -333 l 260 -192 q 310 -219 278 -208 q 374 -226 342 -231 q 415 -193 406 -221 q 384 -144 422 -164 q 288 -121 346 -124 z "},"è":{"ha":783,"x_min":74,"x_max":710,"o":"m 522 251 l 710 251 q 631 60 710 122 q 392 -3 553 -3 q 151 74 229 -3 q 74 317 74 151 l 74 503 q 392 822 74 822 q 632 745 554 822 q 710 503 710 668 l 710 340 l 265 340 l 265 319 q 297 195 265 228 q 394 163 329 163 q 522 251 522 163 m 397 657 q 292 618 318 657 q 265 497 265 579 l 525 497 q 499 619 525 582 q 397 657 474 657 m 338 886 l 232 1075 l 424 1075 l 503 886 l 338 886 z "},"é":{"ha":783,"x_min":74,"x_max":710,"o":"m 522 251 l 710 251 q 631 60 710 122 q 392 -3 553 -3 q 151 74 229 -3 q 74 317 74 151 l 74 503 q 392 822 74 822 q 632 745 554 822 q 710 503 710 668 l 710 340 l 265 340 l 265 319 q 297 195 265 228 q 394 163 329 163 q 522 251 522 163 m 397 657 q 292 618 318 657 q 265 497 265 579 l 525 497 q 499 619 525 582 q 397 657 474 657 m 571 1076 l 465 888 l 300 888 l 379 1076 l 571 1076 z "},"ê":{"ha":783,"x_min":74,"x_max":710,"o":"m 522 251 l 710 251 q 631 60 710 122 q 392 -3 553 -3 q 151 74 229 -3 q 74 317 74 151 l 74 503 q 392 822 74 822 q 632 745 554 822 q 710 503 710 668 l 710 340 l 265 340 l 265 319 q 297 195 265 228 q 394 163 329 163 q 522 251 522 163 m 397 657 q 292 618 318 657 q 265 497 265 579 l 525 497 q 499 619 525 582 q 397 657 474 657 m 399 951 l 333 889 l 157 889 l 157 903 l 354 1082 l 443 1082 l 639 903 l 639 889 l 461 889 l 399 951 z "},"ë":{"ha":783,"x_min":74,"x_max":710,"o":"m 522 251 l 710 251 q 631 60 710 122 q 392 -3 553 -3 q 151 74 229 -3 q 74 317 74 151 l 74 503 q 392 822 74 822 q 632 745 554 822 q 710 503 710 668 l 710 340 l 265 340 l 265 319 q 297 195 265 228 q 394 163 329 163 q 522 251 522 163 m 397 657 q 292 618 318 657 q 265 497 265 579 l 525 497 q 499 619 525 582 q 397 657 474 657 m 151 985 q 182 1052 151 1028 q 250 1077 213 1076 q 318 1053 288 1078 q 349 985 349 1029 q 318 919 349 943 q 250 893 288 894 q 182 916 213 892 q 151 985 151 940 m 447 985 q 478 1052 447 1028 q 545 1077 508 1076 q 613 1053 582 1078 q 643 985 643 1029 q 594 905 643 929 q 496 903 544 881 q 447 985 447 926 z "},"ì":{"ha":361,"x_min":7,"x_max":278,"o":"m 275 801 l 275 -1 l 85 -1 l 85 801 l 275 801 m 113 881 l 7 1069 l 199 1069 l 278 881 l 113 881 z "},"í":{"ha":360,"x_min":85,"x_max":358,"o":"m 358 1074 l 253 885 l 88 885 l 167 1074 l 358 1074 m 275 801 l 275 -1 l 85 -1 l 85 801 l 275 801 z "},"î":{"ha":361,"x_min":-33,"x_max":397,"o":"m 182 958 l 124 893 l -33 893 l -33 908 l 143 1092 l 222 1092 l 397 908 l 397 893 l 238 893 l 182 958 m 275 801 l 275 -1 l 85 -1 l 85 801 l 275 801 z "},"ï":{"ha":361,"x_min":-58,"x_max":417,"o":"m -58 989 q -26 1062 -58 1035 q 44 1090 6 1089 q 114 1064 82 1090 q 146 989 146 1038 q 114 918 146 944 q 44 890 82 892 q -26 915 6 889 q -58 989 -58 942 m 213 989 q 244 1062 213 1035 q 315 1090 276 1089 q 385 1064 353 1090 q 417 989 417 1038 q 385 918 417 944 q 315 890 353 892 q 244 915 276 889 q 213 989 213 942 m 275 801 l 275 -1 l 85 -1 l 85 801 l 275 801 z "},"ð":{"ha":758,"x_min":65,"x_max":696,"o":"m 250 807 l 204 882 l 290 932 q 140 1050 218 1006 l 146 1069 l 376 1069 q 442 1019 413 1044 l 532 1072 l 579 997 l 507 956 q 645 732 594 857 q 696 474 696 607 l 696 306 q 624 61 696 135 q 381 -12 551 -12 q 138 61 211 -12 q 65 306 65 135 l 65 474 q 140 695 65 622 q 346 768 214 768 q 414 767 394 768 q 349 864 385 817 l 250 807 m 286 198 q 300 184 286 198 q 381 169 314 169 q 475 198 447 169 q 503 306 503 226 l 503 474 q 475 570 503 544 q 381 596 447 596 q 286 570 314 596 q 258 474 258 544 l 258 306 q 286 198 258 226 z "},"ñ":{"ha":840,"x_min":110,"x_max":744,"o":"m 110 0 l 110 819 l 275 819 l 285 736 q 478 825 360 825 q 669 752 593 826 q 744 506 744 678 l 744 0 l 556 0 l 556 504 q 432 653 556 653 q 300 511 300 653 l 300 0 l 110 0 m 326 924 l 221 978 q 298 1081 242 1046 q 419 1088 354 1117 l 483 1056 q 543 1089 522 1036 l 654 1044 q 585 931 636 971 q 464 919 535 892 l 393 953 q 361 957 383 963 q 326 924 339 951 z "},"ò":{"ha":775,"x_min":69,"x_max":706,"o":"m 628 63 q 589 25 628 63 q 388 -14 550 -14 q 147 63 225 -14 q 69 306 69 140 l 69 503 q 148 743 69 664 q 388 822 226 822 q 628 745 550 822 q 706 503 706 668 l 706 306 q 628 63 706 140 m 289 195 q 303 175 289 195 q 388 156 317 156 q 486 195 458 156 q 514 315 514 235 l 514 493 q 486 613 514 574 q 388 653 458 653 q 289 613 317 653 q 261 493 261 574 l 261 315 q 289 195 261 235 m 325 889 l 219 1078 l 411 1078 l 490 889 l 325 889 z "},"ó":{"ha":775,"x_min":69,"x_max":706,"o":"m 628 63 q 589 25 628 63 q 388 -14 550 -14 q 147 63 225 -14 q 69 306 69 140 l 69 503 q 148 743 69 664 q 388 822 226 822 q 628 745 550 822 q 706 503 706 668 l 706 306 q 628 63 706 140 m 289 195 q 303 175 289 195 q 388 156 317 156 q 486 195 458 156 q 514 315 514 235 l 514 493 q 486 613 514 574 q 388 653 458 653 q 289 613 317 653 q 261 493 261 574 l 261 315 q 289 195 261 235 m 572 1076 l 467 888 l 301 888 l 381 1076 l 572 1076 z "},"ô":{"ha":775,"x_min":69,"x_max":706,"o":"m 628 63 q 589 25 628 63 q 388 -14 550 -14 q 147 63 225 -14 q 69 306 69 140 l 69 503 q 148 743 69 664 q 388 822 226 822 q 628 745 550 822 q 706 503 706 668 l 706 306 q 628 63 706 140 m 289 195 q 303 175 289 195 q 388 156 317 156 q 486 195 458 156 q 514 315 514 235 l 514 493 q 486 613 514 574 q 388 653 458 653 q 289 613 317 653 q 261 493 261 574 l 261 315 q 289 195 261 235 m 390 957 l 325 894 l 149 894 l 149 908 l 346 1088 l 435 1088 l 631 908 l 631 894 l 453 894 l 390 957 z "},"õ":{"ha":775,"x_min":69,"x_max":706,"o":"m 628 63 q 589 25 628 63 q 388 -14 550 -14 q 147 63 225 -14 q 69 306 69 140 l 69 503 q 148 743 69 664 q 388 822 226 822 q 628 745 550 822 q 706 503 706 668 l 706 306 q 628 63 706 140 m 289 195 q 303 175 289 195 q 388 156 317 156 q 486 195 458 156 q 514 315 514 235 l 514 493 q 486 613 514 574 q 388 653 458 653 q 289 613 317 653 q 261 493 261 574 l 261 315 q 289 195 261 235 m 276 906 l 168 963 q 247 1068 189 1032 q 371 1075 306 1104 l 436 1042 q 497 1078 478 1024 l 611 1031 q 540 913 592 954 q 415 901 488 872 l 343 936 q 312 940 335 947 q 276 906 289 933 z "},"ö":{"ha":775,"x_min":69,"x_max":706,"o":"m 628 63 q 589 25 628 63 q 388 -14 550 -14 q 147 63 225 -14 q 69 306 69 140 l 69 503 q 148 743 69 664 q 388 822 226 822 q 628 745 550 822 q 706 503 706 668 l 706 306 q 628 63 706 140 m 289 195 q 303 175 289 195 q 388 156 317 156 q 486 195 458 156 q 514 315 514 235 l 514 493 q 486 613 514 574 q 388 653 458 653 q 289 613 317 653 q 261 493 261 574 l 261 315 q 289 195 261 235 m 143 986 q 192 1069 143 1044 q 292 1071 242 1094 q 342 986 342 1047 q 310 918 342 943 q 242 892 279 893 q 174 916 206 892 q 143 986 143 940 m 442 986 q 492 1069 442 1044 q 591 1071 542 1094 q 640 986 640 1047 q 609 918 640 943 q 541 892 578 893 q 473 916 504 892 q 442 986 442 940 z "},"÷":{"ha":656,"x_min":35,"x_max":601,"o":"m 246 609 q 231 622 246 609 q 217 681 217 635 q 246 752 217 726 q 317 778 275 778 q 388 752 357 778 q 418 681 418 726 q 388 609 418 635 q 317 583 357 583 q 246 609 275 583 m 35 368 l 601 368 l 601 528 l 35 528 l 35 368 m 246 142 q 231 155 246 142 q 217 214 217 168 q 246 285 217 260 q 317 311 275 311 q 388 285 357 311 q 418 214 418 260 q 388 142 418 168 q 317 115 357 115 q 246 142 275 115 z "},"ø":{"ha":775,"x_min":69,"x_max":706,"o":"m 388 -14 q 278 -3 329 -14 l 242 -83 l 93 -83 l 156 56 q 69 306 69 132 l 69 503 q 148 743 69 664 q 388 822 226 822 q 497 811 444 822 l 536 899 l 686 899 l 619 751 q 706 503 706 675 l 706 306 q 628 63 706 140 q 388 -14 550 -14 m 261 315 l 261 290 l 424 649 q 388 653 407 653 q 289 613 317 653 q 261 493 261 574 l 261 315 m 388 156 q 486 195 458 156 q 514 315 514 235 l 514 493 q 513 517 514 510 l 351 158 q 388 156 374 156 z "},"ù":{"ha":828,"x_min":92,"x_max":731,"o":"m 731 821 l 731 1 l 561 1 l 551 85 q 358 -4 476 -4 q 167 69 243 -6 q 92 315 92 143 l 92 821 l 281 821 l 281 317 q 404 168 281 168 q 536 310 536 168 l 536 821 l 731 821 m 336 897 l 231 1086 l 422 1086 l 501 897 l 336 897 z "},"ú":{"ha":828,"x_min":92,"x_max":731,"o":"m 731 821 l 731 1 l 561 1 l 551 85 q 358 -4 476 -4 q 167 69 243 -6 q 92 315 92 143 l 92 821 l 281 821 l 281 317 q 404 168 281 168 q 536 310 536 168 l 536 821 l 731 821 m 588 1083 l 482 894 l 317 894 l 396 1083 l 588 1083 z "},"û":{"ha":828,"x_min":92,"x_max":731,"o":"m 731 821 l 731 1 l 561 1 l 551 85 q 358 -4 476 -4 q 167 69 243 -6 q 92 315 92 143 l 92 821 l 281 821 l 281 317 q 404 168 281 168 q 536 310 536 168 l 536 821 l 731 821 m 415 958 l 350 896 l 174 896 l 174 910 l 371 1089 l 460 1089 l 656 910 l 656 896 l 478 896 l 415 958 z "},"ü":{"ha":828,"x_min":92,"x_max":731,"o":"m 731 821 l 731 1 l 561 1 l 551 85 q 358 -4 476 -4 q 167 69 243 -6 q 92 315 92 143 l 92 821 l 281 821 l 281 317 q 404 168 281 168 q 536 310 536 168 l 536 821 l 731 821 m 161 1003 q 212 1088 161 1063 q 314 1090 263 1114 q 365 1003 365 1065 q 333 934 365 960 q 263 907 301 908 q 193 931 225 906 q 161 1003 161 957 m 468 1003 q 519 1088 468 1063 q 621 1090 569 1114 q 672 1003 672 1065 q 640 934 672 960 q 570 907 608 908 q 500 931 532 906 q 468 1003 468 957 z "},"ý":{"ha":708,"x_min":21,"x_max":692,"o":"m 493 819 l 692 819 l 449 10 l 450 10 l 406 -149 q 334 -281 379 -239 q 227 -322 289 -324 q 86 -290 165 -321 l 115 -150 q 133 -155 118 -151 q 152 -159 147 -158 q 169 -161 157 -160 q 186 -161 181 -162 q 201 -157 192 -160 q 215 -148 210 -154 q 225 -133 219 -142 q 235 -110 231 -124 l 267 6 l 21 819 l 219 819 l 293 574 q 357 229 332 419 q 421 574 388 436 l 493 819 m 525 1081 l 419 892 l 254 892 l 333 1081 l 525 1081 z "},"þ":{"ha":810,"x_min":92,"x_max":725,"o":"m 92 1074 l 282 1074 l 282 758 q 456 825 340 825 q 725 508 725 825 l 725 297 q 655 72 725 151 q 450 -8 585 -8 q 282 64 325 -8 l 282 -249 l 92 -249 l 92 1074 m 406 168 q 535 306 535 168 l 535 499 q 411 656 535 656 q 282 492 282 656 l 282 304 q 406 168 282 168 z "},"ÿ":{"ha":708,"x_min":21,"x_max":692,"o":"m 493 819 l 692 819 l 449 10 l 450 10 l 406 -149 q 334 -281 379 -239 q 227 -322 289 -324 q 86 -290 165 -321 l 115 -150 q 133 -155 118 -151 q 152 -159 147 -158 q 169 -161 157 -160 q 186 -161 181 -162 q 201 -157 192 -160 q 215 -148 210 -154 q 225 -133 219 -142 q 235 -110 231 -124 l 267 6 l 21 819 l 219 819 l 293 574 q 357 229 332 419 q 421 574 388 436 l 493 819 m 106 1003 q 156 1088 106 1063 q 258 1090 207 1114 q 310 1003 310 1065 q 278 934 310 960 q 208 907 246 908 q 138 931 169 906 q 106 1003 106 957 m 413 1003 q 463 1088 413 1063 q 565 1090 514 1114 q 617 1003 617 1065 q 585 934 617 960 q 515 907 553 908 q 444 931 476 906 q 413 1003 413 957 z "},"Ā":{"ha":803,"x_min":13,"x_max":790,"o":"m 499 1068 l 790 0 l 593 0 l 539 189 l 265 189 l 210 0 l 13 0 l 308 1068 l 499 1068 m 313 376 l 490 376 l 401 772 l 313 376 m 225 1281 l 572 1281 l 572 1140 l 225 1140 l 225 1281 z "},"ā":{"ha":754,"x_min":50,"x_max":675,"o":"m 493 326 q 231 236 231 353 q 343 164 231 164 q 493 326 476 164 m 257 538 l 75 538 q 141 755 65 686 q 368 824 217 824 q 601 744 526 824 q 675 504 675 665 l 675 0 l 519 0 l 501 94 q 286 -11 425 -11 q 115 49 181 -11 q 50 221 50 108 q 493 471 50 501 q 467 611 493 568 q 369 654 442 654 q 281 628 307 654 q 257 538 256 603 m 197 1076 l 554 1076 l 554 921 l 197 921 l 197 1076 z "},"Ă":{"ha":803,"x_min":13,"x_max":790,"o":"m 499 1068 l 790 0 l 593 0 l 539 189 l 265 189 l 210 0 l 13 0 l 308 1068 l 499 1068 m 313 376 l 490 376 l 401 772 l 313 376 m 200 1317 l 343 1317 q 403 1253 343 1253 q 461 1317 461 1253 l 606 1317 q 403 1131 604 1131 q 200 1317 201 1131 z "},"ă":{"ha":754,"x_min":50,"x_max":675,"o":"m 493 326 q 231 236 231 353 q 343 164 231 164 q 493 326 476 164 m 257 538 l 75 538 q 141 755 65 686 q 368 824 217 824 q 601 744 526 824 q 675 504 675 665 l 675 0 l 519 0 l 501 94 q 286 -11 425 -11 q 115 49 181 -11 q 50 221 50 108 q 493 471 50 501 q 467 611 493 568 q 369 654 442 654 q 281 628 307 654 q 257 538 256 603 m 172 1079 l 315 1079 q 375 1015 315 1015 q 433 1079 433 1015 l 578 1079 q 375 893 576 893 q 172 1079 174 893 z "},"Ą":{"ha":803,"x_min":13,"x_max":804,"o":"m 499 1068 l 790 0 l 776 0 q 707 -75 724 -35 q 711 -133 690 -115 q 797 -146 736 -162 l 804 -282 q 535 -153 535 -319 q 628 0 535 -69 l 593 0 l 539 189 l 265 189 l 210 0 l 13 0 l 308 1068 l 499 1068 m 313 376 l 490 376 l 401 772 l 313 376 z "},"ą":{"ha":754,"x_min":50,"x_max":690,"o":"m 257 538 l 75 538 q 141 755 65 686 q 368 824 217 824 q 601 744 526 824 q 675 504 675 665 l 675 0 q 608 -42 631 -17 q 587 -90 585 -68 q 597 -126 589 -111 q 683 -139 622 -156 l 690 -275 q 421 -146 421 -312 q 519 1 421 -56 l 501 94 q 286 -11 425 -11 q 115 49 181 -11 q 50 221 50 108 q 493 471 50 501 q 467 611 493 568 q 369 654 442 654 q 281 628 307 654 q 257 538 256 603 m 493 326 q 231 236 231 353 q 343 164 231 164 q 493 326 476 164 z "},"Ć":{"ha":865,"x_min":82,"x_max":804,"o":"m 613 331 l 804 331 q 717 76 804 156 q 439 -3 631 -3 q 166 74 250 -3 q 82 317 82 150 l 82 751 q 164 997 82 922 q 439 1071 246 1071 q 719 994 633 1071 q 804 739 804 917 l 613 739 q 578 863 613 825 q 439 901 543 901 q 307 863 340 901 q 274 742 274 825 l 274 326 q 307 205 274 243 q 439 167 340 167 q 575 206 538 167 q 613 331 613 246 m 626 1329 l 521 1140 l 356 1140 l 435 1329 l 626 1329 z "},"ć":{"ha":768,"x_min":69,"x_max":706,"o":"m 706 514 l 525 514 q 496 619 525 586 q 397 653 467 653 q 292 613 322 653 q 261 493 261 574 l 261 315 q 289 195 261 235 q 388 156 317 156 q 492 189 461 156 q 525 296 524 222 l 706 296 q 628 59 706 132 q 388 -14 551 -14 q 147 64 225 -14 q 69 310 69 142 l 69 493 q 393 822 69 822 q 631 750 556 822 q 706 514 706 678 m 563 1079 l 457 890 l 292 890 l 371 1079 l 563 1079 z "},"Ĉ":{"ha":865,"x_min":82,"x_max":804,"o":"m 613 331 l 804 331 q 717 76 804 156 q 439 -3 631 -3 q 166 74 250 -3 q 82 317 82 150 l 82 751 q 164 997 82 922 q 439 1071 246 1071 q 719 994 633 1071 q 804 739 804 917 l 613 739 q 578 863 613 825 q 439 901 543 901 q 307 863 340 901 q 274 742 274 825 l 274 326 q 307 205 274 243 q 439 167 340 167 q 575 206 538 167 q 613 331 613 246 m 442 1199 l 376 1136 l 200 1136 l 200 1150 l 397 1329 l 486 1329 l 682 1150 l 682 1136 l 504 1136 l 442 1199 z "},"ĉ":{"ha":768,"x_min":69,"x_max":706,"o":"m 706 514 l 525 514 q 496 619 525 586 q 397 653 467 653 q 292 613 322 653 q 261 493 261 574 l 261 315 q 289 195 261 235 q 388 156 317 156 q 492 189 461 156 q 525 296 524 222 l 706 296 q 628 59 706 132 q 388 -14 551 -14 q 147 64 225 -14 q 69 310 69 142 l 69 493 q 393 822 69 822 q 631 750 556 822 q 706 514 706 678 m 393 951 l 328 889 l 151 889 l 151 903 l 349 1082 l 438 1082 l 633 903 l 633 889 l 456 889 l 393 951 z "},"Ċ":{"ha":865,"x_min":82,"x_max":804,"o":"m 613 331 l 804 331 q 717 76 804 156 q 439 -3 631 -3 q 166 74 250 -3 q 82 317 82 150 l 82 751 q 164 997 82 922 q 439 1071 246 1071 q 719 994 633 1071 q 804 739 804 917 l 613 739 q 578 863 613 825 q 439 901 543 901 q 307 863 340 901 q 274 742 274 825 l 274 326 q 307 205 274 243 q 439 167 340 167 q 575 206 538 167 q 613 331 613 246 m 350 1246 q 401 1333 350 1307 q 502 1333 451 1358 q 553 1246 553 1308 q 521 1175 553 1201 q 451 1147 489 1149 q 382 1172 414 1146 q 350 1246 350 1199 z "},"ċ":{"ha":768,"x_min":69,"x_max":706,"o":"m 706 514 l 525 514 q 496 619 525 586 q 397 653 467 653 q 292 613 322 653 q 261 493 261 574 l 261 315 q 289 195 261 235 q 388 156 317 156 q 492 189 461 156 q 525 296 524 222 l 706 296 q 628 59 706 132 q 388 -14 551 -14 q 147 64 225 -14 q 69 310 69 142 l 69 493 q 393 822 69 822 q 631 750 556 822 q 706 514 706 678 m 304 993 q 355 1080 304 1054 q 456 1081 406 1106 q 507 993 507 1056 q 475 922 507 949 q 406 894 443 896 q 336 919 368 893 q 304 993 304 946 z "},"Č":{"ha":865,"x_min":82,"x_max":804,"o":"m 613 331 l 804 331 q 717 76 804 156 q 439 -3 631 -3 q 166 74 250 -3 q 82 317 82 150 l 82 751 q 164 997 82 922 q 439 1071 246 1071 q 719 994 633 1071 q 804 739 804 917 l 613 739 q 578 863 613 825 q 439 901 543 901 q 307 863 340 901 q 274 742 274 825 l 274 326 q 307 205 274 243 q 439 167 340 167 q 575 206 538 167 q 613 331 613 246 m 447 1274 l 513 1336 l 689 1336 l 689 1322 l 492 1143 l 403 1143 l 207 1322 l 207 1336 l 385 1336 l 447 1274 z "},"č":{"ha":768,"x_min":69,"x_max":706,"o":"m 706 514 l 525 514 q 496 619 525 586 q 397 653 467 653 q 292 613 322 653 q 261 493 261 574 l 261 315 q 289 195 261 235 q 388 156 317 156 q 492 189 461 156 q 525 296 524 222 l 706 296 q 628 59 706 132 q 388 -14 551 -14 q 147 64 225 -14 q 69 310 69 142 l 69 493 q 393 822 69 822 q 631 750 556 822 q 706 514 706 678 m 400 1010 l 465 1072 l 642 1072 l 642 1058 l 444 879 l 356 879 l 160 1058 l 160 1072 l 338 1072 l 400 1010 z "},"Ď":{"ha":889,"x_min":99,"x_max":815,"o":"m 99 1069 l 450 1069 q 730 994 644 1069 q 815 750 815 919 l 815 314 q 728 74 815 149 q 450 0 642 0 l 99 0 l 99 1069 m 289 174 l 450 174 q 587 208 550 174 q 624 324 624 243 l 624 740 q 590 859 624 824 q 453 894 557 894 l 289 894 l 289 174 m 429 1261 l 494 1324 l 671 1324 l 671 1310 l 474 1131 l 385 1131 l 189 1310 l 189 1324 l 367 1324 l 429 1261 z "},"ď":{"ha":958,"x_min":75,"x_max":982,"o":"m 821 1076 l 982 1076 l 918 825 l 775 825 l 821 1076 m 708 0 l 551 0 l 538 90 q 344 -4 486 -4 q 75 313 75 -4 l 75 524 q 145 749 75 669 q 350 829 215 829 q 518 757 475 829 l 518 1069 l 708 1069 l 708 0 m 394 653 q 265 515 265 653 l 265 322 q 389 165 265 165 q 518 329 518 165 l 518 517 q 394 653 518 653 z "},"Đ":{"ha":889,"x_min":10,"x_max":815,"o":"m 99 1069 l 450 1069 q 730 994 644 1069 q 815 750 815 919 l 815 314 q 728 74 815 149 q 450 0 642 0 l 99 0 l 99 426 l 10 426 l 10 586 l 99 586 l 99 1069 m 289 174 l 450 174 q 587 208 550 174 q 624 324 624 243 l 624 740 q 590 859 624 824 q 453 894 557 894 l 289 894 l 289 586 l 435 586 l 435 426 l 289 426 l 289 174 z "},"đ":{"ha":789,"x_min":75,"x_max":779,"o":"m 435 882 l 435 989 l 518 989 l 518 1069 l 708 1069 l 708 989 l 779 989 l 779 882 l 708 882 l 708 0 l 551 0 l 538 90 q 344 -4 486 -4 q 75 313 75 -4 l 75 524 q 145 749 75 669 q 350 829 215 829 q 518 757 475 829 l 518 882 l 435 882 m 394 653 q 265 515 265 653 l 265 322 q 389 165 265 165 q 518 329 518 165 l 518 517 q 394 653 518 653 z "},"Ē":{"ha":783,"x_min":97,"x_max":732,"o":"m 97 1069 l 713 1069 l 713 903 l 289 903 l 289 628 l 650 628 l 650 456 l 289 456 l 289 174 l 732 174 l 732 -1 l 97 -1 l 97 1069 m 232 1303 l 586 1303 l 586 1147 l 232 1147 l 232 1303 z "},"ē":{"ha":783,"x_min":74,"x_max":710,"o":"m 522 251 l 710 251 q 631 60 710 122 q 392 -3 553 -3 q 151 74 229 -3 q 74 317 74 151 l 74 503 q 392 822 74 822 q 632 745 554 822 q 710 503 710 668 l 710 340 l 265 340 l 265 319 q 297 195 265 228 q 394 163 329 163 q 522 251 522 163 m 397 657 q 292 618 318 657 q 265 497 265 579 l 525 497 q 499 619 525 582 q 397 657 474 657 m 225 1076 l 578 1076 l 578 915 l 225 915 l 225 1076 z "},"Ĕ":{"ha":783,"x_min":97,"x_max":732,"o":"m 97 1069 l 713 1069 l 713 903 l 289 903 l 289 628 l 650 628 l 650 456 l 289 456 l 289 174 l 732 174 l 732 -1 l 97 -1 l 97 1069 m 201 1326 l 344 1326 q 404 1263 344 1263 q 463 1326 463 1263 l 607 1326 q 404 1140 606 1140 q 201 1326 203 1140 z "},"ĕ":{"ha":783,"x_min":74,"x_max":710,"o":"m 522 251 l 710 251 q 631 60 710 122 q 392 -3 553 -3 q 151 74 229 -3 q 74 317 74 151 l 74 503 q 392 822 74 822 q 632 745 554 822 q 710 503 710 668 l 710 340 l 265 340 l 265 319 q 297 195 265 228 q 394 163 329 163 q 522 251 522 163 m 397 657 q 292 618 318 657 q 265 497 265 579 l 525 497 q 499 619 525 582 q 397 657 474 657 m 192 1076 l 335 1076 q 394 1013 335 1013 q 453 1076 453 1013 l 597 1076 q 394 890 596 890 q 192 1076 193 890 z "},"Ė":{"ha":783,"x_min":97,"x_max":732,"o":"m 97 1069 l 713 1069 l 713 903 l 289 903 l 289 628 l 650 628 l 650 456 l 289 456 l 289 174 l 732 174 l 732 -1 l 97 -1 l 97 1069 m 321 1238 q 372 1324 321 1299 q 473 1325 422 1350 q 524 1238 524 1300 q 492 1167 524 1193 q 422 1139 460 1140 q 353 1164 385 1138 q 321 1238 321 1190 z "},"ė":{"ha":783,"x_min":74,"x_max":710,"o":"m 522 251 l 710 251 q 631 60 710 122 q 392 -3 553 -3 q 151 74 229 -3 q 74 317 74 151 l 74 503 q 392 822 74 822 q 632 745 554 822 q 710 503 710 668 l 710 340 l 265 340 l 265 319 q 297 195 265 228 q 394 163 329 163 q 522 251 522 163 m 397 657 q 292 618 318 657 q 265 497 265 579 l 525 497 q 499 619 525 582 q 397 657 474 657 m 301 988 q 352 1074 301 1049 q 453 1075 403 1100 q 504 988 504 1050 q 472 917 504 943 q 403 889 440 890 q 333 914 365 888 q 301 988 301 940 z "},"Ę":{"ha":783,"x_min":97,"x_max":749,"o":"m 97 1069 l 713 1069 l 713 903 l 289 903 l 289 628 l 650 628 l 650 456 l 289 456 l 289 174 l 732 174 l 732 3 q 668 -47 690 -19 q 646 -96 646 -75 q 656 -132 646 -117 q 742 -144 681 -161 l 749 -281 q 479 -151 479 -318 q 582 -1 479 -60 l 97 -1 l 97 1069 z "},"ę":{"ha":783,"x_min":74,"x_max":710,"o":"m 522 251 l 710 251 q 624 53 710 114 l 626 54 q 556 -26 581 14 q 530 -90 531 -65 q 539 -132 529 -115 q 625 -144 564 -161 l 632 -281 q 363 -151 363 -318 q 444 0 363 -58 q 392 -3 411 -3 q 151 74 229 -3 q 74 317 74 151 l 74 503 q 392 822 74 822 q 632 745 554 822 q 710 503 710 668 l 710 340 l 265 340 l 265 319 q 297 195 265 228 q 394 163 329 163 q 522 251 522 163 m 397 657 q 292 618 318 657 q 265 497 265 579 l 525 497 q 499 619 525 582 q 397 657 474 657 z "},"Ě":{"ha":783,"x_min":97,"x_max":732,"o":"m 97 1069 l 713 1069 l 713 903 l 289 903 l 289 628 l 650 628 l 650 456 l 289 456 l 289 174 l 732 174 l 732 -1 l 97 -1 l 97 1069 m 414 1271 l 479 1333 l 656 1333 l 656 1319 l 458 1140 l 369 1140 l 174 1319 l 174 1333 l 351 1333 l 414 1271 z "},"ě":{"ha":783,"x_min":74,"x_max":710,"o":"m 522 251 l 710 251 q 631 60 710 122 q 392 -3 553 -3 q 151 74 229 -3 q 74 317 74 151 l 74 503 q 392 822 74 822 q 632 745 554 822 q 710 503 710 668 l 710 340 l 265 340 l 265 319 q 297 195 265 228 q 394 163 329 163 q 522 251 522 163 m 397 657 q 292 618 318 657 q 265 497 265 579 l 525 497 q 499 619 525 582 q 397 657 474 657 m 400 1008 l 465 1071 l 642 1071 l 642 1057 l 444 878 l 356 878 l 160 1057 l 160 1071 l 338 1071 l 400 1008 z "},"Ĝ":{"ha":876,"x_min":79,"x_max":801,"o":"m 442 435 l 442 608 l 801 608 l 801 331 q 714 74 801 154 q 436 -6 626 -6 q 163 74 247 -6 q 79 326 79 153 l 79 756 q 163 999 79 922 q 436 1075 246 1075 q 716 1001 631 1075 q 801 756 801 926 l 610 756 q 576 871 610 836 q 436 906 542 906 q 305 866 339 906 q 271 746 271 826 l 271 326 q 304 205 271 243 q 436 167 338 167 q 581 208 538 167 q 624 331 624 249 l 624 435 l 442 435 m 442 1204 l 376 1142 l 200 1142 l 200 1156 l 397 1335 l 486 1335 l 682 1156 l 682 1142 l 504 1142 l 442 1204 z "},"ĝ":{"ha":763,"x_min":69,"x_max":693,"o":"m 342 -4 q 140 72 211 -4 q 69 303 69 147 l 69 507 q 336 824 69 824 q 522 729 471 824 l 536 819 l 693 819 l 693 -21 q 383 -335 693 -335 q 88 -75 88 -335 l 269 -75 q 383 -172 269 -172 q 485 -135 456 -172 q 515 -19 515 -99 l 515 79 q 342 -4 461 -4 m 378 164 q 476 206 447 164 q 506 331 506 247 l 506 490 q 381 654 506 654 q 290 618 321 654 q 260 497 260 582 l 260 326 q 289 203 260 242 q 378 164 318 164 m 407 950 l 342 888 l 165 888 l 165 901 l 363 1081 l 451 1081 l 647 901 l 647 888 l 469 888 l 407 950 z "},"Ğ":{"ha":876,"x_min":79,"x_max":801,"o":"m 442 435 l 442 608 l 801 608 l 801 331 q 714 74 801 154 q 436 -6 626 -6 q 163 74 247 -6 q 79 326 79 153 l 79 756 q 163 999 79 922 q 436 1075 246 1075 q 716 1001 631 1075 q 801 756 801 926 l 610 756 q 576 871 610 836 q 436 906 542 906 q 305 866 339 906 q 271 746 271 826 l 271 326 q 304 205 271 243 q 436 167 338 167 q 581 208 538 167 q 624 331 624 249 l 624 435 l 442 435 m 243 1332 l 386 1332 q 446 1268 386 1268 q 504 1332 504 1268 l 649 1332 q 446 1146 647 1146 q 243 1332 244 1146 z "},"ğ":{"ha":763,"x_min":69,"x_max":693,"o":"m 342 -4 q 140 72 211 -4 q 69 303 69 147 l 69 507 q 336 824 69 824 q 522 729 471 824 l 536 819 l 693 819 l 693 -21 q 383 -335 693 -335 q 88 -75 88 -335 l 269 -75 q 383 -172 269 -172 q 485 -135 456 -172 q 515 -19 515 -99 l 515 79 q 342 -4 461 -4 m 378 164 q 476 206 447 164 q 506 331 506 247 l 506 490 q 381 654 506 654 q 290 618 321 654 q 260 497 260 582 l 260 326 q 289 203 260 242 q 378 164 318 164 m 186 1074 l 329 1074 q 389 1010 329 1010 q 447 1074 447 1010 l 592 1074 q 389 888 590 888 q 186 1074 188 888 z "},"Ġ":{"ha":876,"x_min":79,"x_max":801,"o":"m 442 435 l 442 608 l 801 608 l 801 331 q 714 74 801 154 q 436 -6 626 -6 q 163 74 247 -6 q 79 326 79 153 l 79 756 q 163 999 79 922 q 436 1075 246 1075 q 716 1001 631 1075 q 801 756 801 926 l 610 756 q 576 871 610 836 q 436 906 542 906 q 305 866 339 906 q 271 746 271 826 l 271 326 q 304 205 271 243 q 436 167 338 167 q 581 208 538 167 q 624 331 624 249 l 624 435 l 442 435 m 353 1244 q 403 1331 353 1306 q 505 1332 454 1357 q 556 1244 556 1307 q 524 1174 556 1200 q 454 1146 492 1147 q 385 1171 417 1144 q 353 1244 353 1197 z "},"ġ":{"ha":763,"x_min":69,"x_max":693,"o":"m 342 -4 q 140 72 211 -4 q 69 303 69 147 l 69 507 q 336 824 69 824 q 522 729 471 824 l 536 819 l 693 819 l 693 -21 q 383 -335 693 -335 q 88 -75 88 -335 l 269 -75 q 383 -172 269 -172 q 485 -135 456 -172 q 515 -19 515 -99 l 515 79 q 342 -4 461 -4 m 378 164 q 476 206 447 164 q 506 331 506 247 l 506 490 q 381 654 506 654 q 290 618 321 654 q 260 497 260 582 l 260 326 q 289 203 260 242 q 378 164 318 164 m 293 1003 q 344 1090 293 1064 q 445 1090 394 1115 q 496 1003 496 1065 q 464 932 496 958 q 394 904 432 906 q 325 929 357 903 q 293 1003 293 956 z "},"Ģ":{"ha":876,"x_min":79,"x_max":801,"o":"m 442 435 l 442 608 l 801 608 l 801 331 q 714 74 801 154 q 436 -6 626 -6 q 163 74 247 -6 q 79 326 79 153 l 79 756 q 163 999 79 922 q 436 1075 246 1075 q 716 1001 631 1075 q 801 756 801 926 l 610 756 q 576 871 610 836 q 436 906 542 906 q 305 866 339 906 q 271 746 271 826 l 271 326 q 304 205 271 243 q 436 167 338 167 q 581 208 538 167 q 624 331 624 249 l 624 435 l 442 435 m 364 -349 l 300 -261 q 336 -233 322 -247 q 358 -208 350 -219 q 368 -178 365 -197 q 371 -149 371 -160 q 370 -111 371 -137 q 369 -69 369 -85 l 550 -69 q 516 -248 561 -181 q 364 -349 471 -315 z "},"ģ":{"ha":763,"x_min":69,"x_max":693,"o":"m 486 1146 l 549 1064 q 513 1038 528 1051 q 492 1015 499 1025 q 482 987 485 1004 q 479 958 479 969 q 480 923 479 947 q 481 885 481 899 l 304 885 q 338 1051 293 989 q 486 1146 382 1114 m 342 -4 q 140 72 211 -4 q 69 303 69 147 l 69 507 q 336 824 69 824 q 522 729 471 824 l 536 819 l 693 819 l 693 -21 q 383 -335 693 -335 q 88 -75 88 -335 l 269 -75 q 383 -172 269 -172 q 485 -135 456 -172 q 515 -19 515 -99 l 515 79 q 342 -4 461 -4 m 378 164 q 476 206 447 164 q 506 331 506 247 l 506 490 q 381 654 506 654 q 290 618 321 654 q 260 497 260 582 l 260 326 q 289 203 260 242 q 378 164 318 164 z "},"Ĥ":{"ha":910,"x_min":97,"x_max":814,"o":"m 814 1051 l 814 0 l 624 0 l 624 422 l 290 422 l 290 -1 l 97 -1 l 97 1051 l 290 1051 l 290 597 l 624 597 l 624 1051 l 814 1051 m 458 1200 l 393 1138 l 217 1138 l 217 1151 l 414 1331 l 503 1331 l 699 1151 l 699 1138 l 521 1138 l 458 1200 z "},"ĥ":{"ha":775,"x_min":76,"x_max":699,"o":"m 699 0 l 508 0 l 508 515 q 479 620 508 589 q 389 653 450 651 q 267 517 267 653 l 267 0 l 76 0 l 76 1069 l 267 1069 l 267 754 q 439 826 325 826 q 634 750 569 826 q 699 538 699 674 l 699 0 m 365 1197 l 300 1135 l 124 1135 l 124 1149 l 321 1328 l 410 1328 l 606 1149 l 606 1135 l 428 1135 l 365 1197 z "},"Ħ":{"ha":893,"x_min":-6,"x_max":907,"o":"m 814 1051 l 814 874 l 907 874 l 907 753 l 814 753 l 814 0 l 624 0 l 624 422 l 290 422 l 290 0 l 97 0 l 97 753 l -6 753 l -6 874 l 97 874 l 97 1051 l 290 1051 l 290 874 l 624 874 l 624 1051 l 814 1051 m 290 597 l 624 597 l 624 753 l 290 753 l 290 597 z "},"ħ":{"ha":771,"x_min":3,"x_max":699,"o":"m 3 875 l 3 981 l 76 981 l 76 1069 l 267 1069 l 267 981 l 365 981 l 365 875 l 267 875 l 267 754 q 439 826 325 826 q 634 750 569 826 q 699 538 699 674 l 699 0 l 508 0 l 508 515 q 479 620 508 589 q 389 653 450 651 q 267 517 267 653 l 267 0 l 76 0 l 76 875 l 3 875 z "},"Ĩ":{"ha":388,"x_min":-25,"x_max":421,"o":"m 290 1068 l 290 -1 l 97 -1 l 97 1068 l 290 1068 m 85 1157 l -25 1217 q 55 1326 -4 1289 q 179 1332 114 1363 l 244 1299 q 307 1335 288 1279 l 421 1286 q 349 1165 401 1208 q 225 1153 297 1122 l 151 1189 q 119 1194 142 1200 q 85 1157 97 1188 z "},"ĩ":{"ha":372,"x_min":-15,"x_max":393,"o":"m 283 801 l 283 -1 l 93 -1 l 93 801 l 283 801 m 85 904 l -15 961 q 58 1067 4 1031 q 171 1074 111 1103 l 232 1040 q 289 1076 269 1024 l 393 1029 q 327 912 375 953 q 213 900 279 871 l 146 935 q 117 939 138 946 q 85 904 96 932 z "},"Ī":{"ha":388,"x_min":18,"x_max":372,"o":"m 290 1068 l 290 -1 l 97 -1 l 97 1068 l 290 1068 m 18 1315 l 372 1315 l 372 1158 l 18 1158 l 18 1315 z "},"ī":{"ha":372,"x_min":14,"x_max":367,"o":"m 283 801 l 283 -1 l 93 -1 l 93 801 l 283 801 m 14 1076 l 367 1076 l 367 915 l 14 915 l 14 1076 z "},"Ĭ":{"ha":374,"x_min":-22,"x_max":383,"o":"m 276 1068 l 276 -1 l 83 -1 l 83 1068 l 276 1068 m -22 1328 l 121 1328 q 181 1264 121 1264 q 239 1328 239 1264 l 383 1328 q 181 1142 382 1142 q -22 1328 -21 1142 z "},"ĭ":{"ha":344,"x_min":-17,"x_max":358,"o":"m 265 801 l 265 -1 l 75 -1 l 75 801 l 265 801 m -17 1074 l 117 1074 q 171 1004 117 1004 q 225 1074 225 1004 l 358 1074 q 313 919 358 969 q 171 869 267 869 q -17 1074 -15 869 z "},"Į":{"ha":388,"x_min":51,"x_max":321,"o":"m 290 1068 l 290 -1 q 233 -47 253 -19 q 216 -94 214 -74 q 228 -131 218 -115 q 314 -143 253 -160 l 321 -279 q 51 -150 51 -317 q 151 -1 51 -60 l 97 -1 l 97 1068 l 290 1068 z "},"į":{"ha":389,"x_min":39,"x_max":308,"o":"m 289 801 l 289 -1 q 228 -45 250 -18 q 206 -94 206 -72 q 215 -131 206 -115 q 301 -143 240 -160 l 308 -279 q 39 -150 39 -317 q 139 -1 39 -60 l 99 -1 l 99 801 l 289 801 m 88 985 q 141 1078 88 1051 q 249 1078 194 1106 q 303 985 303 1051 q 269 908 303 936 q 195 879 236 879 q 121 907 154 879 q 88 985 88 935 z "},"İ":{"ha":388,"x_min":88,"x_max":304,"o":"m 290 1068 l 290 -1 l 97 -1 l 97 1068 l 290 1068 m 88 1236 q 122 1311 88 1283 q 196 1340 156 1339 q 270 1313 236 1340 q 304 1236 304 1285 q 250 1147 304 1174 q 142 1144 196 1119 q 88 1236 88 1169 z "},"ı":{"ha":378,"x_min":99,"x_max":289,"o":"m 289 801 l 289 -1 l 99 -1 l 99 801 l 289 801 z "},"Ĳ":{"ha":1142,"x_min":106,"x_max":1063,"o":"m 299 1068 l 299 -1 l 106 -1 l 106 1068 l 299 1068 m 1063 1069 l 1063 313 q 985 70 1063 147 q 744 -7 907 -7 q 426 322 426 -7 l 618 322 q 646 202 618 242 q 744 163 674 163 q 843 202 815 163 q 871 322 871 242 l 871 1069 l 1063 1069 z "},"ĳ":{"ha":751,"x_min":88,"x_max":678,"o":"m 289 801 l 289 -1 l 99 -1 l 99 801 l 289 801 m 88 985 q 141 1078 88 1051 q 249 1078 194 1106 q 303 985 303 1051 q 269 908 303 936 q 195 879 236 879 q 121 907 154 879 q 88 985 88 935 m 664 808 l 664 44 q 598 -198 664 -135 q 363 -261 532 -261 l 363 -99 q 451 -74 428 -99 q 474 40 474 -50 l 474 808 l 664 808 m 463 985 q 516 1078 463 1051 q 624 1078 569 1106 q 678 985 678 1051 q 644 908 678 936 q 570 879 611 879 q 496 907 529 879 q 463 985 463 935 z "},"Ĵ":{"ha":731,"x_min":11,"x_max":771,"o":"m 647 1069 l 647 313 q 569 70 647 147 q 329 -7 492 -7 q 11 322 11 -7 l 203 322 q 231 202 203 242 q 329 163 258 163 q 428 202 400 163 q 456 322 456 242 l 456 1069 l 647 1069 m 531 1204 l 465 1142 l 289 1142 l 289 1156 l 486 1335 l 575 1335 l 771 1156 l 771 1142 l 593 1142 l 531 1204 z "},"ĵ":{"ha":358,"x_min":-21,"x_max":408,"o":"m 285 808 l 285 44 q 219 -198 285 -135 q -17 -261 153 -261 l -17 -99 q 72 -74 49 -99 q 94 40 94 -50 l 94 808 l 285 808 m 194 947 l 136 881 l -21 881 l -21 896 l 154 1085 l 233 1085 l 408 896 l 408 881 l 250 881 l 194 947 z "},"Ķ":{"ha":856,"x_min":90,"x_max":869,"o":"m 869 0 l 636 0 l 335 429 l 281 429 l 281 0 l 90 0 l 90 1069 l 282 1069 l 282 619 l 333 619 l 614 1069 l 838 1069 l 489 535 l 869 0 m 361 -306 l 296 -222 q 333 -197 318 -210 q 355 -173 347 -183 q 365 -144 363 -162 q 368 -116 368 -126 q 367 -81 368 -106 q 367 -42 367 -56 l 550 -42 q 515 -210 561 -146 q 361 -306 469 -274 z "},"ķ":{"ha":751,"x_min":76,"x_max":763,"o":"m 763 0 l 549 0 l 321 356 l 267 356 l 267 0 l 76 0 l 76 1072 l 267 1072 l 267 528 l 318 528 l 521 819 l 735 819 l 472 451 l 763 0 m 318 -324 l 261 -240 q 298 -212 285 -226 q 317 -178 311 -199 q 324 -148 322 -157 q 325 -105 326 -139 q 324 -60 324 -71 l 485 -60 q 454 -228 494 -164 q 318 -324 414 -292 z "},"ĸ":{"ha":763,"x_min":76,"x_max":763,"o":"m 763 0 l 549 0 l 321 356 l 267 356 l 267 0 l 76 0 l 76 818 l 267 818 l 267 528 l 318 528 l 521 815 l 735 815 l 472 451 l 763 0 z "},"Ĺ":{"ha":736,"x_min":97,"x_max":703,"o":"m 703 175 l 703 0 l 97 0 l 97 1069 l 290 1069 l 290 175 l 703 175 m 382 1325 l 276 1136 l 111 1136 l 190 1325 l 382 1325 z "},"ĺ":{"ha":425,"x_min":97,"x_max":383,"o":"m 97 300 l 97 1071 l 288 1071 l 288 303 q 306 208 288 233 q 383 183 325 183 l 383 0 q 157 63 217 0 q 97 300 97 125 m 381 1326 l 275 1138 l 110 1138 l 189 1326 l 381 1326 z "},"Ļ":{"ha":736,"x_min":97,"x_max":703,"o":"m 703 175 l 703 0 l 97 0 l 97 1069 l 290 1069 l 290 175 l 703 175 m 318 -329 l 261 -246 q 298 -218 285 -232 q 317 -183 311 -204 q 324 -153 322 -162 q 325 -110 326 -144 q 324 -65 324 -76 l 485 -65 q 454 -233 494 -169 q 318 -329 414 -297 z "},"ļ":{"ha":425,"x_min":97,"x_max":383,"o":"m 97 300 l 97 1071 l 288 1071 l 288 303 q 306 208 288 233 q 383 183 325 183 l 383 0 q 157 63 217 0 q 97 300 97 125 m 176 -329 l 119 -246 q 156 -218 143 -232 q 175 -183 169 -204 q 183 -153 181 -162 q 183 -110 185 -144 q 182 -65 182 -76 l 343 -65 q 313 -233 353 -169 q 176 -329 272 -297 z "},"Ľ":{"ha":736,"x_min":97,"x_max":703,"o":"m 703 175 l 703 0 l 97 0 l 97 1069 l 290 1069 l 290 175 l 703 175 m 132 1135 l 190 1342 l 367 1342 l 283 1135 l 132 1135 z "},"ľ":{"ha":589,"x_min":97,"x_max":594,"o":"m 97 300 l 97 1071 l 288 1071 l 288 303 q 306 208 288 233 q 383 183 325 183 l 383 0 q 157 63 217 0 q 97 300 97 125 m 382 808 l 436 1071 l 594 1071 l 519 808 l 382 808 z "},"Ŀ":{"ha":735,"x_min":97,"x_max":703,"o":"m 703 175 l 703 0 l 97 0 l 97 1069 l 290 1069 l 290 175 l 703 175 m 425 508 q 462 592 425 561 q 543 623 499 622 q 624 594 588 624 q 661 508 661 564 q 624 426 661 457 q 543 394 588 394 q 462 423 499 393 q 425 508 425 453 z "},"ŀ":{"ha":642,"x_min":97,"x_max":619,"o":"m 97 300 l 97 1071 l 288 1071 l 288 303 q 306 208 288 233 q 383 183 325 183 l 383 0 q 157 63 217 0 q 97 300 97 125 m 383 511 q 420 594 383 564 q 501 626 457 625 q 583 597 546 626 q 619 511 619 567 q 583 428 619 460 q 501 397 546 397 q 420 426 457 396 q 383 511 383 456 z "},"Ł":{"ha":736,"x_min":17,"x_max":703,"o":"m 703 175 l 703 0 l 97 0 l 97 388 l 17 356 l 17 493 l 97 525 l 97 1069 l 290 1069 l 290 603 l 424 657 l 424 519 l 290 465 l 290 175 l 703 175 z "},"ł":{"ha":425,"x_min":4,"x_max":401,"o":"m 97 300 l 97 425 l 4 390 l 4 528 l 97 563 l 97 1071 l 288 1071 l 288 633 l 401 676 l 401 539 l 288 496 l 288 303 q 306 208 288 233 q 383 183 325 183 l 383 0 q 157 63 217 0 q 97 300 97 125 z "},"Ń":{"ha":865,"x_min":96,"x_max":769,"o":"m 769 1068 l 769 0 l 583 0 l 269 678 l 286 272 l 286 0 l 96 0 l 96 1068 l 286 1068 l 600 364 l 579 815 l 579 1068 l 769 1068 m 607 1331 l 501 1142 l 336 1142 l 415 1331 l 607 1331 z "},"ń":{"ha":840,"x_min":110,"x_max":744,"o":"m 110 0 l 110 819 l 275 819 l 285 736 q 478 825 360 825 q 669 752 593 826 q 744 506 744 678 l 744 0 l 556 0 l 556 504 q 432 653 556 653 q 300 511 300 653 l 300 0 l 110 0 m 608 1090 l 503 901 l 338 901 l 417 1090 l 608 1090 z "},"Ņ":{"ha":865,"x_min":96,"x_max":769,"o":"m 769 1068 l 769 0 l 583 0 l 269 678 l 286 272 l 286 0 l 96 0 l 96 1068 l 286 1068 l 600 364 l 579 815 l 579 1068 l 769 1068 m 333 -329 l 265 -240 q 310 -210 293 -225 q 333 -174 326 -196 q 342 -142 340 -151 q 342 -97 343 -132 q 340 -49 340 -61 l 535 -49 q 498 -227 547 -160 q 333 -329 449 -294 z "},"ņ":{"ha":840,"x_min":110,"x_max":744,"o":"m 110 0 l 110 819 l 275 819 l 285 736 q 478 825 360 825 q 669 752 593 826 q 744 506 744 678 l 744 0 l 556 0 l 556 504 q 432 653 556 653 q 300 511 300 653 l 300 0 l 110 0 m 338 -329 l 276 -243 q 310 -217 297 -231 q 331 -192 324 -203 q 342 -162 339 -181 q 344 -132 344 -143 q 344 -95 344 -121 q 343 -56 343 -69 l 515 -56 q 483 -231 526 -164 q 338 -329 439 -297 z "},"Ň":{"ha":865,"x_min":96,"x_max":769,"o":"m 769 1068 l 769 0 l 583 0 l 269 678 l 286 272 l 286 0 l 96 0 l 96 1068 l 286 1068 l 600 364 l 579 815 l 579 1068 l 769 1068 m 424 1263 l 489 1325 l 665 1325 l 665 1311 l 468 1132 l 379 1132 l 183 1311 l 183 1325 l 361 1325 l 424 1263 z "},"ň":{"ha":840,"x_min":110,"x_max":744,"o":"m 110 0 l 110 819 l 275 819 l 285 736 q 478 825 360 825 q 669 752 593 826 q 744 506 744 678 l 744 0 l 556 0 l 556 504 q 432 653 556 653 q 300 511 300 653 l 300 0 l 110 0 m 422 1015 l 488 1078 l 664 1078 l 664 1064 l 467 885 l 378 885 l 182 1064 l 182 1078 l 360 1078 l 422 1015 z "},"ŉ":{"ha":840,"x_min":110,"x_max":744,"o":"m 110 0 l 110 819 l 275 819 l 285 736 q 478 825 360 825 q 669 752 593 826 q 744 506 744 678 l 744 0 l 556 0 l 556 504 q 432 653 556 653 q 300 511 300 653 l 300 0 l 110 0 z "},"Ŋ":{"ha":865,"x_min":96,"x_max":769,"o":"m 769 1068 l 769 0 q 703 -217 769 -162 q 469 -271 636 -271 l 469 -114 q 554 -92 531 -114 q 581 6 578 -71 l 269 678 l 286 272 l 286 0 l 96 0 l 96 1068 l 286 1068 l 600 364 l 579 815 l 579 1068 l 769 1068 z "},"ŋ":{"ha":840,"x_min":110,"x_max":744,"o":"m 110 0 l 110 819 l 275 819 l 285 736 q 478 825 360 825 q 669 752 593 826 q 744 506 744 678 l 744 29 q 680 -210 744 -149 q 444 -271 615 -271 l 444 -114 q 533 -90 510 -114 q 556 25 556 -65 l 556 504 q 432 653 556 653 q 300 511 300 653 l 300 0 l 110 0 z "},"Ō":{"ha":890,"x_min":82,"x_max":804,"o":"m 439 -10 q 166 67 250 -10 q 82 310 82 143 l 82 763 q 164 1008 82 933 q 439 1082 246 1082 q 719 1007 633 1082 q 804 763 804 932 l 804 310 q 717 67 804 144 q 439 -10 629 -10 m 307 198 q 324 179 307 198 q 439 160 340 160 q 575 199 538 160 q 613 319 613 238 l 613 753 q 578 874 613 835 q 439 913 543 913 q 308 873 342 913 q 274 753 274 833 l 274 319 q 307 198 274 236 m 279 1308 l 622 1308 l 622 1163 l 279 1163 l 279 1308 z "},"ō":{"ha":775,"x_min":69,"x_max":706,"o":"m 628 63 q 589 25 628 63 q 388 -14 550 -14 q 147 63 225 -14 q 69 306 69 140 l 69 503 q 148 743 69 664 q 388 822 226 822 q 628 745 550 822 q 706 503 706 668 l 706 306 q 628 63 706 140 m 289 195 q 303 175 289 195 q 388 156 317 156 q 486 195 458 156 q 514 315 514 235 l 514 493 q 486 613 514 574 q 388 653 458 653 q 289 613 317 653 q 261 493 261 574 l 261 315 q 289 195 261 235 m 218 1068 l 564 1068 l 564 919 l 218 919 l 218 1068 z "},"Ŏ":{"ha":890,"x_min":82,"x_max":804,"o":"m 439 -10 q 166 67 250 -10 q 82 310 82 143 l 82 763 q 164 1008 82 933 q 439 1082 246 1082 q 719 1007 633 1082 q 804 763 804 932 l 804 310 q 717 67 804 144 q 439 -10 629 -10 m 307 198 q 324 179 307 198 q 439 160 340 160 q 575 199 538 160 q 613 319 613 238 l 613 753 q 578 874 613 835 q 439 913 543 913 q 308 873 342 913 q 274 753 274 833 l 274 319 q 307 198 274 236 m 239 1329 l 382 1329 q 442 1265 382 1265 q 500 1329 500 1265 l 644 1329 q 442 1143 643 1143 q 239 1329 240 1143 z "},"ŏ":{"ha":775,"x_min":69,"x_max":706,"o":"m 628 63 q 589 25 628 63 q 388 -14 550 -14 q 147 63 225 -14 q 69 306 69 140 l 69 503 q 148 743 69 664 q 388 822 226 822 q 628 745 550 822 q 706 503 706 668 l 706 306 q 628 63 706 140 m 289 195 q 303 175 289 195 q 388 156 317 156 q 486 195 458 156 q 514 315 514 235 l 514 493 q 486 613 514 574 q 388 653 458 653 q 289 613 317 653 q 261 493 261 574 l 261 315 q 289 195 261 235 m 186 1074 l 329 1074 q 389 1010 329 1010 q 447 1074 447 1010 l 592 1074 q 389 888 590 888 q 186 1074 188 888 z "},"Ő":{"ha":890,"x_min":82,"x_max":804,"o":"m 439 -10 q 166 67 250 -10 q 82 310 82 143 l 82 763 q 164 1008 82 933 q 439 1082 246 1082 q 719 1007 633 1082 q 804 763 804 932 l 804 310 q 717 67 804 144 q 439 -10 629 -10 m 307 198 q 324 179 307 198 q 439 160 340 160 q 575 199 538 160 q 613 319 613 238 l 613 753 q 578 874 613 835 q 439 913 543 913 q 308 873 342 913 q 274 753 274 833 l 274 319 q 307 198 274 236 m 244 1143 l 335 1301 l 501 1301 l 501 1299 l 392 1143 l 244 1143 m 471 1142 l 561 1301 l 728 1301 l 728 1299 l 619 1142 l 471 1142 z "},"ő":{"ha":775,"x_min":69,"x_max":706,"o":"m 628 63 q 589 25 628 63 q 388 -14 550 -14 q 147 63 225 -14 q 69 306 69 140 l 69 503 q 148 743 69 664 q 388 822 226 822 q 628 745 550 822 q 706 503 706 668 l 706 306 q 628 63 706 140 m 289 195 q 303 175 289 195 q 388 156 317 156 q 486 195 458 156 q 514 315 514 235 l 514 493 q 486 613 514 574 q 388 653 458 653 q 289 613 317 653 q 261 493 261 574 l 261 315 q 289 195 261 235 m 190 889 l 279 1060 l 446 1060 l 446 1056 l 336 889 l 190 889 m 415 888 l 504 1060 l 671 1060 l 671 1056 l 563 888 l 415 888 z "},"Œ":{"ha":1104,"x_min":71,"x_max":1046,"o":"m 521 1072 l 1038 1072 l 1038 906 l 699 906 l 699 631 l 999 631 l 999 458 l 699 458 l 699 175 l 1046 175 l 1046 0 l 415 0 q 149 76 228 0 q 71 319 71 151 l 71 753 q 147 999 71 925 q 415 1072 224 1072 l 521 1072 m 263 329 q 291 206 263 243 q 415 169 319 169 l 521 169 l 521 903 l 415 903 q 291 865 319 903 q 263 743 263 826 l 263 329 z "},"œ":{"ha":1194,"x_min":69,"x_max":1136,"o":"m 957 251 l 1136 251 q 1061 51 1136 111 q 818 -8 986 -8 q 607 88 679 -8 q 388 -14 535 -14 q 147 63 225 -14 q 69 306 69 140 l 69 503 q 148 743 69 664 q 388 822 226 822 q 606 726 525 822 q 692 795 635 768 q 818 822 750 822 q 1058 745 981 822 q 1136 503 1136 668 l 1136 340 l 688 340 l 688 310 q 723 192 689 224 q 821 161 757 161 q 957 251 957 161 m 388 156 q 488 195 460 156 q 517 315 517 235 l 517 317 l 517 503 q 485 615 514 578 q 388 653 456 653 q 289 613 317 653 q 261 493 261 574 l 261 315 q 289 195 261 235 q 388 156 317 156 m 926 619 q 913 638 926 619 q 824 657 900 657 q 718 621 747 657 q 688 511 689 585 l 688 503 l 688 497 l 951 497 q 926 619 951 582 z "},"Ŕ":{"ha":825,"x_min":97,"x_max":796,"o":"m 796 0 l 572 0 l 360 376 l 289 376 l 289 0 l 97 0 l 97 1069 l 367 1069 q 654 993 563 1069 q 746 749 746 917 l 746 693 q 702 506 746 574 q 561 407 658 438 l 796 0 m 288 553 l 367 553 q 506 588 467 553 q 544 703 544 624 l 544 739 q 510 857 544 821 q 369 893 475 893 l 288 893 l 288 553 m 561 1322 l 456 1133 l 290 1133 l 369 1322 l 561 1322 z "},"ŕ":{"ha":535,"x_min":83,"x_max":494,"o":"m 494 824 l 494 622 q 335 596 397 635 q 274 468 274 557 l 274 -1 l 83 -1 l 83 819 l 258 819 l 267 733 q 358 808 293 779 q 494 824 422 836 m 374 1083 l 268 894 l 103 894 l 182 1083 l 374 1083 z "},"Ŗ":{"ha":825,"x_min":97,"x_max":796,"o":"m 796 0 l 572 0 l 360 376 l 289 376 l 289 0 l 97 0 l 97 1069 l 367 1069 q 654 993 563 1069 q 746 749 746 917 l 746 693 q 702 506 746 574 q 561 407 658 438 l 796 0 m 288 553 l 367 553 q 506 588 467 553 q 544 703 544 624 l 544 739 q 510 857 544 821 q 369 893 475 893 l 288 893 l 288 553 m 332 -329 l 267 -243 q 303 -217 289 -231 q 326 -192 318 -203 q 337 -162 333 -181 q 340 -132 340 -143 q 340 -94 340 -121 q 339 -54 339 -68 l 525 -54 q 490 -229 538 -162 q 332 -329 443 -296 z "},"ŗ":{"ha":526,"x_min":18,"x_max":486,"o":"m 486 824 l 486 622 q 327 596 389 635 q 265 468 265 557 l 265 -1 l 75 -1 l 75 819 l 250 819 l 258 733 q 349 808 285 779 q 486 824 414 836 m 76 -310 l 18 -233 q 51 -210 38 -222 q 71 -188 64 -197 q 81 -162 78 -179 q 85 -135 85 -144 q 84 -103 85 -126 q 83 -68 83 -79 l 250 -68 q 218 -222 260 -164 q 76 -310 176 -281 z "},"Ř":{"ha":825,"x_min":97,"x_max":796,"o":"m 796 0 l 572 0 l 360 376 l 289 376 l 289 0 l 97 0 l 97 1069 l 367 1069 q 654 993 563 1069 q 746 749 746 917 l 746 693 q 702 506 746 574 q 561 407 658 438 l 796 0 m 288 553 l 367 553 q 506 588 467 553 q 544 703 544 624 l 544 739 q 510 857 544 821 q 369 893 475 893 l 288 893 l 288 553 m 393 1253 l 461 1310 l 643 1310 l 643 1297 l 439 1132 l 347 1132 l 143 1297 l 143 1310 l 328 1310 l 393 1253 z "},"ř":{"ha":535,"x_min":68,"x_max":550,"o":"m 494 824 l 494 622 q 335 596 397 635 q 274 468 274 557 l 274 -1 l 83 -1 l 83 819 l 258 819 l 267 733 q 358 808 293 779 q 494 824 422 836 m 308 1007 l 374 1063 l 550 1063 l 550 1050 l 353 889 l 264 889 l 68 1050 l 68 1063 l 246 1063 l 308 1007 z "},"Ś":{"ha":839,"x_min":61,"x_max":776,"o":"m 560 790 q 521 881 556 856 q 414 907 486 907 q 299 877 333 907 q 265 772 265 847 q 271 724 265 744 q 291 688 276 703 q 319 665 306 674 q 362 650 333 657 q 410 640 390 643 q 469 633 429 638 q 535 624 510 628 q 626 601 588 615 q 701 556 664 586 q 757 471 738 525 q 776 340 776 417 q 691 72 776 154 q 413 -11 606 -11 q 61 290 61 -11 l 254 290 q 293 194 257 225 q 417 164 329 164 q 544 203 504 164 q 585 333 585 243 q 577 380 585 360 q 551 414 569 400 q 518 437 533 428 q 472 453 503 446 q 424 463 440 460 q 370 469 407 465 q 321 475 333 474 q 72 771 72 507 q 160 997 72 919 q 414 1075 249 1075 q 654 1009 568 1075 q 753 790 740 943 l 560 790 m 594 1324 l 489 1135 l 324 1135 l 403 1324 l 594 1324 z "},"ś":{"ha":724,"x_min":53,"x_max":681,"o":"m 671 563 l 485 563 q 454 630 485 607 q 375 653 424 653 q 257 567 257 653 q 265 529 257 544 q 285 506 274 514 q 319 492 296 497 q 358 485 342 488 q 408 481 375 483 q 461 476 442 479 q 617 410 554 465 q 681 253 681 354 q 592 60 681 125 q 364 -4 504 -4 q 135 65 218 -4 q 53 253 53 133 l 246 253 q 278 185 249 207 q 372 163 307 163 q 457 188 426 163 q 488 246 488 213 q 485 267 488 257 q 475 283 482 276 q 461 296 468 290 q 441 306 454 301 q 418 313 428 310 q 391 318 408 315 q 363 322 374 321 q 331 326 351 324 q 299 329 310 328 q 64 557 64 360 q 149 757 64 690 q 374 824 233 824 q 595 751 519 824 q 671 563 671 679 m 546 1076 l 440 888 l 275 888 l 354 1076 l 546 1076 z "},"Ŝ":{"ha":839,"x_min":61,"x_max":776,"o":"m 560 790 q 521 881 556 856 q 414 907 486 907 q 299 877 333 907 q 265 772 265 847 q 271 724 265 744 q 291 688 276 703 q 319 665 306 674 q 362 650 333 657 q 410 640 390 643 q 469 633 429 638 q 535 624 510 628 q 626 601 588 615 q 701 556 664 586 q 757 471 738 525 q 776 340 776 417 q 691 72 776 154 q 413 -11 606 -11 q 61 290 61 -11 l 254 290 q 293 194 257 225 q 417 164 329 164 q 544 203 504 164 q 585 333 585 243 q 577 380 585 360 q 551 414 569 400 q 518 437 533 428 q 472 453 503 446 q 424 463 440 460 q 370 469 407 465 q 321 475 333 474 q 72 771 72 507 q 160 997 72 919 q 414 1075 249 1075 q 654 1009 568 1075 q 753 790 740 943 l 560 790 m 418 1200 l 353 1138 l 176 1138 l 176 1151 l 374 1331 l 463 1331 l 658 1151 l 658 1138 l 481 1138 l 418 1200 z "},"ŝ":{"ha":724,"x_min":53,"x_max":681,"o":"m 671 563 l 485 563 q 454 630 485 607 q 375 653 424 653 q 257 567 257 653 q 265 529 257 544 q 285 506 274 514 q 319 492 296 497 q 358 485 342 488 q 408 481 375 483 q 461 476 442 479 q 617 410 554 465 q 681 253 681 354 q 592 60 681 125 q 364 -4 504 -4 q 135 65 218 -4 q 53 253 53 133 l 246 253 q 278 185 249 207 q 372 163 307 163 q 457 188 426 163 q 488 246 488 213 q 485 267 488 257 q 475 283 482 276 q 461 296 468 290 q 441 306 454 301 q 418 313 428 310 q 391 318 408 315 q 363 322 374 321 q 331 326 351 324 q 299 329 310 328 q 64 557 64 360 q 149 757 64 690 q 374 824 233 824 q 595 751 519 824 q 671 563 671 679 m 378 946 l 315 882 l 146 882 l 146 896 l 335 1082 l 421 1082 l 610 896 l 610 882 l 438 882 l 378 946 z "},"Ş":{"ha":839,"x_min":61,"x_max":776,"o":"m 325 -117 l 360 -10 q 61 290 61 11 l 254 290 q 293 194 257 225 q 417 164 329 164 q 544 203 504 164 q 585 333 585 243 q 577 380 585 360 q 551 414 569 400 q 518 437 533 428 q 472 453 503 446 q 424 463 440 460 q 370 469 407 465 q 321 475 333 474 q 72 771 72 507 q 160 997 72 919 q 414 1075 249 1075 q 654 1009 568 1075 q 753 790 740 943 l 560 790 q 521 881 556 856 q 414 907 486 907 q 299 877 333 907 q 265 772 265 847 q 271 724 265 744 q 291 688 276 703 q 319 665 306 674 q 362 650 333 657 q 410 640 390 643 q 469 633 429 638 q 535 624 510 628 q 626 601 588 615 q 701 556 664 586 q 757 471 738 525 q 776 340 776 417 q 711 94 776 176 q 501 -6 646 11 l 485 -56 q 594 -106 565 -60 q 607 -214 622 -151 q 519 -318 589 -283 q 367 -341 449 -353 q 236 -276 286 -329 l 297 -189 q 380 -221 326 -217 q 453 -186 433 -225 q 422 -139 460 -158 q 325 -117 385 -119 z "},"ş":{"ha":724,"x_min":53,"x_max":681,"o":"m 275 -104 l 310 -1 q 120 78 188 11 q 53 253 53 146 l 246 253 q 278 185 249 207 q 372 163 307 163 q 457 188 426 163 q 488 246 488 213 q 485 267 488 257 q 475 283 482 276 q 461 296 468 290 q 441 306 454 301 q 418 313 428 310 q 391 318 408 315 q 363 322 374 321 q 331 326 351 324 q 299 329 310 328 q 64 557 64 360 q 149 757 64 690 q 374 824 233 824 q 595 751 519 824 q 671 563 671 679 l 485 563 q 454 630 485 607 q 375 653 424 653 q 257 567 257 653 q 265 529 257 544 q 285 506 274 514 q 319 492 296 497 q 358 485 342 488 q 408 481 375 483 q 461 476 442 479 q 617 410 554 465 q 681 253 681 354 q 617 81 681 144 q 444 1 553 18 l 428 -46 q 533 -93 506 -50 q 546 -196 561 -136 q 460 -295 528 -262 q 316 -317 393 -328 q 190 -254 239 -306 l 249 -172 q 328 -203 276 -199 q 399 -169 379 -207 q 368 -124 404 -142 q 275 -104 332 -107 z "},"Š":{"ha":839,"x_min":61,"x_max":776,"o":"m 560 790 q 521 881 556 856 q 414 907 486 907 q 299 877 333 907 q 265 772 265 847 q 271 724 265 744 q 291 688 276 703 q 319 665 306 674 q 362 650 333 657 q 410 640 390 643 q 469 633 429 638 q 535 624 510 628 q 626 601 588 615 q 701 556 664 586 q 757 471 738 525 q 776 340 776 417 q 691 72 776 154 q 413 -11 606 -11 q 61 290 61 -11 l 254 290 q 293 194 257 225 q 417 164 329 164 q 544 203 504 164 q 585 333 585 243 q 577 380 585 360 q 551 414 569 400 q 518 437 533 428 q 472 453 503 446 q 424 463 440 460 q 370 469 407 465 q 321 475 333 474 q 72 771 72 507 q 160 997 72 919 q 414 1075 249 1075 q 654 1009 568 1075 q 753 790 740 943 l 560 790 m 417 1271 l 482 1333 l 658 1333 l 658 1319 l 461 1140 l 372 1140 l 176 1319 l 176 1333 l 354 1333 l 417 1271 z "},"š":{"ha":724,"x_min":53,"x_max":681,"o":"m 671 563 l 485 563 q 454 630 485 607 q 375 653 424 653 q 257 567 257 653 q 265 529 257 544 q 285 506 274 514 q 319 492 296 497 q 358 485 342 488 q 408 481 375 483 q 461 476 442 479 q 617 410 554 465 q 681 253 681 354 q 592 60 681 125 q 364 -4 504 -4 q 135 65 218 -4 q 53 253 53 133 l 246 253 q 278 185 249 207 q 372 163 307 163 q 457 188 426 163 q 488 246 488 213 q 485 267 488 257 q 475 283 482 276 q 461 296 468 290 q 441 306 454 301 q 418 313 428 310 q 391 318 408 315 q 363 322 374 321 q 331 326 351 324 q 299 329 310 328 q 64 557 64 360 q 149 757 64 690 q 374 824 233 824 q 595 751 519 824 q 671 563 671 679 m 361 1008 l 426 1071 l 603 1071 l 603 1057 l 406 878 l 317 878 l 121 1057 l 121 1071 l 299 1071 l 361 1008 z "},"Ţ":{"ha":656,"x_min":11,"x_max":644,"o":"m 644 1065 l 644 894 l 424 894 l 424 0 l 379 0 l 365 -44 q 469 -100 442 -49 q 482 -214 496 -151 q 398 -317 465 -283 q 253 -339 331 -351 q 128 -272 175 -326 l 186 -182 q 233 -209 203 -199 q 294 -213 264 -219 q 335 -178 325 -207 q 307 -128 343 -144 q 211 -108 271 -111 l 244 0 l 233 0 l 233 894 l 11 894 l 11 1065 l 644 1065 z "},"ţ":{"ha":464,"x_min":76,"x_max":432,"o":"m 89 300 l 89 961 l 279 982 l 279 822 l 418 822 l 418 649 l 279 649 l 279 303 q 306 190 279 224 q 421 167 333 156 l 421 0 q 321 -4 364 -6 l 306 -51 q 406 -101 379 -57 q 417 -207 432 -146 q 336 -309 400 -275 q 197 -331 272 -343 q 76 -267 122 -319 l 132 -182 q 178 -208 149 -199 q 237 -212 207 -218 q 275 -178 267 -206 q 247 -133 282 -151 q 157 -112 213 -115 l 200 24 q 89 300 89 82 z "},"Ť":{"ha":656,"x_min":11,"x_max":644,"o":"m 644 1065 l 644 894 l 424 894 l 424 0 l 233 0 l 233 894 l 11 894 l 11 1065 l 644 1065 m 329 1258 l 394 1321 l 571 1321 l 571 1307 l 374 1128 l 285 1128 l 89 1307 l 89 1321 l 267 1321 l 329 1258 z "},"ť":{"ha":654,"x_min":89,"x_max":681,"o":"m 89 300 l 89 961 l 279 982 l 279 818 l 400 818 l 400 649 l 279 649 l 279 303 q 306 190 279 224 q 421 167 333 156 l 421 0 q 165 49 240 -19 q 89 300 89 118 m 471 761 l 524 1019 l 681 1019 l 607 761 l 471 761 z "},"Ŧ":{"ha":656,"x_min":11,"x_max":644,"o":"m 644 1065 l 644 894 l 424 894 l 424 579 l 551 579 l 551 444 l 424 444 l 424 0 l 233 0 l 233 444 l 107 444 l 107 579 l 233 579 l 233 894 l 11 894 l 11 1065 l 644 1065 z "},"ŧ":{"ha":464,"x_min":3,"x_max":421,"o":"m 3 382 l 3 517 l 89 517 l 89 961 l 279 982 l 279 822 l 418 822 l 418 649 l 279 649 l 279 517 l 414 517 l 414 382 l 279 382 l 279 303 q 306 190 279 224 q 421 167 333 156 l 421 0 q 165 49 240 -19 q 89 300 89 118 l 89 382 l 3 382 z "},"Ũ":{"ha":885,"x_min":83,"x_max":793,"o":"m 601 326 l 601 1068 l 793 1068 l 793 317 q 699 72 793 154 q 433 -10 606 -10 q 83 317 83 -10 l 83 1068 l 275 1068 l 275 326 q 433 160 275 160 q 559 204 517 160 q 601 326 601 249 m 322 1154 l 213 1208 q 292 1309 233 1275 q 417 1314 351 1343 l 482 1283 q 544 1317 525 1267 l 658 1272 q 587 1161 639 1200 q 463 1150 535 1122 l 389 1183 q 358 1187 381 1193 q 322 1154 335 1181 z "},"ũ":{"ha":828,"x_min":92,"x_max":731,"o":"m 731 821 l 731 1 l 561 1 l 551 85 q 358 -4 476 -4 q 167 69 243 -6 q 92 315 92 143 l 92 821 l 281 821 l 281 317 q 404 168 281 168 q 536 310 536 168 l 536 821 l 731 821 m 308 907 l 200 961 q 279 1063 221 1028 q 403 1069 338 1097 l 469 1038 q 531 1071 511 1019 l 644 1026 q 573 915 625 954 q 449 903 521 875 l 376 936 q 344 940 367 946 q 308 907 321 935 z "},"Ū":{"ha":885,"x_min":83,"x_max":793,"o":"m 601 326 l 601 1068 l 793 1068 l 793 317 q 699 72 793 154 q 433 -10 606 -10 q 83 317 83 -10 l 83 1068 l 275 1068 l 275 326 q 433 160 275 160 q 559 204 517 160 q 601 326 601 249 m 256 1303 l 614 1303 l 614 1154 l 256 1154 l 256 1303 z "},"ū":{"ha":828,"x_min":92,"x_max":731,"o":"m 731 821 l 731 1 l 561 1 l 551 85 q 358 -4 476 -4 q 167 69 243 -6 q 92 315 92 143 l 92 821 l 281 821 l 281 317 q 404 168 281 168 q 536 310 536 168 l 536 821 l 731 821 m 233 1076 l 582 1076 l 582 928 l 233 928 l 233 1076 z "},"Ŭ":{"ha":885,"x_min":83,"x_max":793,"o":"m 601 326 l 601 1068 l 793 1068 l 793 317 q 699 72 793 154 q 433 -10 606 -10 q 83 317 83 -10 l 83 1068 l 275 1068 l 275 326 q 433 160 275 160 q 559 204 517 160 q 601 326 601 249 m 232 1322 l 375 1322 q 435 1258 375 1258 q 493 1322 493 1258 l 638 1322 q 435 1136 636 1136 q 232 1322 233 1136 z "},"ŭ":{"ha":828,"x_min":92,"x_max":731,"o":"m 731 821 l 731 1 l 561 1 l 551 85 q 358 -4 476 -4 q 167 69 243 -6 q 92 315 92 143 l 92 821 l 281 821 l 281 317 q 404 168 281 168 q 536 310 536 168 l 536 821 l 731 821 m 211 1069 l 354 1069 q 414 1006 354 1006 q 472 1069 472 1006 l 617 1069 q 414 883 615 883 q 211 1069 213 883 z "},"Ů":{"ha":885,"x_min":83,"x_max":793,"o":"m 601 326 l 601 1068 l 793 1068 l 793 317 q 699 72 793 154 q 433 -10 606 -10 q 83 317 83 -10 l 83 1068 l 275 1068 l 275 326 q 433 160 275 160 q 559 204 517 160 q 601 326 601 249 m 279 1219 q 326 1322 279 1285 q 440 1360 374 1360 q 556 1323 510 1360 q 603 1221 603 1286 q 556 1116 603 1154 q 439 1078 508 1078 q 324 1116 369 1078 q 279 1219 278 1154 m 440 1271 q 390 1245 406 1271 q 390 1194 375 1219 q 440 1168 406 1168 q 494 1194 479 1168 q 494 1245 510 1219 q 440 1271 478 1271 z "},"ů":{"ha":828,"x_min":92,"x_max":731,"o":"m 731 821 l 731 1 l 561 1 l 551 85 q 358 -4 476 -4 q 167 69 243 -6 q 92 315 92 143 l 92 821 l 281 821 l 281 317 q 404 168 281 168 q 536 310 536 168 l 536 821 l 731 821 m 236 1015 q 288 1123 236 1083 q 411 1163 339 1163 q 538 1124 486 1163 q 589 1015 589 1085 q 537 908 589 947 q 410 868 485 868 q 284 908 333 868 q 236 1015 235 947 m 411 1068 q 356 1041 372 1068 q 356 988 340 1014 q 411 961 372 961 q 469 988 453 961 q 469 1041 486 1014 q 411 1068 451 1068 z "},"Ű":{"ha":885,"x_min":83,"x_max":793,"o":"m 601 326 l 601 1068 l 793 1068 l 793 317 q 699 72 793 154 q 433 -10 606 -10 q 83 317 83 -10 l 83 1068 l 275 1068 l 275 326 q 433 160 275 160 q 559 204 517 160 q 601 326 601 249 m 219 1150 l 313 1308 l 486 1308 l 486 1306 l 372 1150 l 219 1150 m 454 1149 l 547 1308 l 721 1308 l 721 1306 l 608 1149 l 454 1149 z "},"ű":{"ha":828,"x_min":92,"x_max":731,"o":"m 731 821 l 731 1 l 561 1 l 551 85 q 358 -4 476 -4 q 167 69 243 -6 q 92 315 92 143 l 92 821 l 281 821 l 281 317 q 404 168 281 168 q 536 310 536 168 l 536 821 l 731 821 m 194 910 l 289 1076 l 463 1076 l 463 1074 l 347 910 l 194 910 m 431 908 l 525 1076 l 699 1076 l 699 1074 l 585 908 l 431 908 z "},"Ų":{"ha":885,"x_min":83,"x_max":793,"o":"m 601 326 l 601 1068 l 793 1068 l 793 317 q 685 60 793 144 l 688 61 q 623 -9 644 26 q 604 -67 601 -44 q 617 -106 607 -89 q 703 -118 642 -135 l 710 -254 q 440 -125 440 -292 q 500 -6 440 -58 q 433 -10 467 -10 q 83 317 83 -10 l 83 1068 l 275 1068 l 275 326 q 433 160 275 160 q 559 204 517 160 q 601 326 601 249 z "},"ų":{"ha":828,"x_min":92,"x_max":761,"o":"m 731 821 l 731 8 q 674 -31 693 -7 q 657 -73 654 -54 q 668 -106 660 -92 q 754 -118 693 -135 l 761 -254 q 492 -125 492 -292 q 561 1 492 -51 l 551 85 q 358 -4 476 -4 q 167 69 243 -6 q 92 315 92 143 l 92 821 l 281 821 l 281 317 q 404 168 281 168 q 536 310 536 168 l 536 821 l 731 821 z "},"Ŵ":{"ha":1286,"x_min":13,"x_max":1268,"o":"m 640 576 l 497 -1 l 296 -1 l 13 1069 l 210 1069 l 315 700 l 392 264 l 567 1035 l 714 1035 l 903 264 l 965 700 l 1071 1069 l 1268 1069 l 1000 -1 l 797 -1 l 640 576 m 643 1196 l 578 1133 l 401 1133 l 401 1147 l 599 1326 l 688 1326 l 883 1147 l 883 1133 l 706 1133 l 643 1196 z "},"ŵ":{"ha":1075,"x_min":11,"x_max":1063,"o":"m 469 819 l 611 819 l 674 557 q 735 229 710 403 q 796 574 764 443 l 867 819 l 1063 819 l 825 -1 l 643 -1 l 594 178 l 538 467 l 481 175 l 432 -1 l 251 -1 l 11 819 l 208 819 l 281 574 q 340 229 310 456 q 349 302 343 243 q 366 422 356 361 q 394 560 376 482 q 432 694 404 600 q 469 819 460 788 m 538 951 l 472 889 l 296 889 l 296 903 l 493 1082 l 582 1082 l 778 903 l 778 889 l 600 889 l 538 951 z "},"Ŷ":{"ha":725,"x_min":-3,"x_max":729,"o":"m 522 1069 l 729 1069 l 460 447 l 460 -1 l 269 -1 l 269 447 l -3 1069 l 204 1069 l 288 872 l 365 643 l 443 878 l 522 1069 m 369 1203 l 304 1140 l 128 1140 l 128 1154 l 325 1333 l 414 1333 l 610 1154 l 610 1140 l 432 1140 l 369 1203 z "},"ŷ":{"ha":708,"x_min":21,"x_max":692,"o":"m 493 819 l 692 819 l 449 10 l 450 10 l 406 -149 q 334 -281 379 -239 q 227 -322 289 -324 q 86 -290 165 -321 l 115 -150 q 133 -155 118 -151 q 152 -159 147 -158 q 169 -161 157 -160 q 186 -161 181 -162 q 201 -157 192 -160 q 215 -148 210 -154 q 225 -133 219 -142 q 235 -110 231 -124 l 267 6 l 21 819 l 219 819 l 293 574 q 357 229 332 419 q 421 574 388 436 l 493 819 m 361 954 l 296 892 l 119 892 l 119 906 l 317 1085 l 406 1085 l 601 906 l 601 892 l 424 892 l 361 954 z "},"Ÿ":{"ha":725,"x_min":-3,"x_max":729,"o":"m 522 1069 l 729 1069 l 460 447 l 460 -1 l 269 -1 l 269 447 l -3 1069 l 204 1069 l 288 872 l 365 643 l 443 878 l 522 1069 m 104 1244 q 155 1330 104 1304 q 257 1331 206 1356 q 308 1244 308 1307 q 257 1161 308 1186 q 155 1160 206 1136 q 104 1244 104 1183 m 411 1244 q 462 1330 411 1304 q 564 1331 513 1356 q 615 1244 615 1307 q 583 1176 615 1201 q 513 1149 551 1150 q 443 1173 475 1147 q 411 1244 411 1199 z "},"Ź":{"ha":732,"x_min":19,"x_max":714,"o":"m 78 1069 l 714 1069 l 303 169 l 690 169 l 690 0 l 19 0 l 438 899 l 78 899 l 78 1069 m 550 1328 l 444 1139 l 279 1139 l 358 1328 l 550 1328 z "},"ź":{"ha":708,"x_min":43,"x_max":681,"o":"m 43 0 l 43 22 l 397 651 l 79 651 l 79 818 l 681 818 l 681 794 l 328 178 l 681 178 l 681 0 l 43 0 m 551 1081 l 446 892 l 281 892 l 360 1081 l 551 1081 z "},"Ż":{"ha":732,"x_min":19,"x_max":714,"o":"m 78 1069 l 714 1069 l 303 169 l 690 169 l 690 0 l 19 0 l 438 899 l 78 899 l 78 1069 m 301 1251 q 352 1338 301 1313 q 453 1339 403 1364 q 504 1251 504 1314 q 472 1181 504 1207 q 403 1153 440 1154 q 333 1178 365 1151 q 301 1251 301 1204 z "},"ż":{"ha":708,"x_min":43,"x_max":681,"o":"m 43 0 l 43 22 l 397 651 l 79 651 l 79 818 l 681 818 l 681 794 l 328 178 l 681 178 l 681 0 l 43 0 m 289 999 q 340 1085 289 1060 q 441 1086 390 1111 q 492 999 492 1061 q 460 928 492 954 q 390 900 428 901 q 321 925 353 899 q 289 999 289 951 z "},"Ž":{"ha":732,"x_min":19,"x_max":714,"o":"m 78 1069 l 714 1069 l 303 169 l 690 169 l 690 0 l 19 0 l 438 899 l 78 899 l 78 1069 m 408 1274 l 474 1336 l 650 1336 l 650 1322 l 453 1143 l 364 1143 l 168 1322 l 168 1336 l 346 1336 l 408 1274 z "},"ž":{"ha":708,"x_min":43,"x_max":681,"o":"m 43 0 l 43 22 l 397 651 l 79 651 l 79 818 l 681 818 l 681 794 l 328 178 l 681 178 l 681 0 l 43 0 m 393 1010 l 458 1072 l 635 1072 l 635 1058 l 438 879 l 349 879 l 153 1058 l 153 1072 l 331 1072 l 393 1010 z "},"ſ":{"ha":488,"x_min":82,"x_max":471,"o":"m 471 1083 l 471 915 q 325 895 378 931 q 272 789 272 860 l 272 -1 l 82 -1 l 82 792 q 185 1023 82 939 q 471 1083 288 1107 z "},"ƒ":{"ha":574,"x_min":42,"x_max":549,"o":"m 192 767 l 192 797 q 279 1026 192 958 q 549 1083 367 1094 l 549 914 q 419 896 456 925 q 382 794 382 867 l 382 767 l 539 767 l 539 592 l 382 592 l 382 19 q 301 -222 382 -144 q 42 -287 221 -299 l 42 -124 q 163 -95 133 -124 q 192 18 192 -67 l 192 593 l 61 593 l 61 767 l 192 767 z "},"Ǻ":{"ha":803,"x_min":13,"x_max":790,"o":"m 478 1247 l 321 1247 l 411 1369 l 593 1369 l 478 1247 m 233 1065 q 282 1182 233 1142 q 401 1222 331 1222 q 522 1183 474 1222 q 571 1067 571 1143 q 510 947 571 993 l 790 0 l 593 0 l 539 189 l 265 189 l 210 0 l 13 0 l 294 944 q 233 1065 232 992 m 313 376 l 490 376 l 401 710 l 313 376 m 456 1090 q 447 1103 456 1090 q 401 1115 439 1115 q 349 1090 364 1115 q 349 1040 333 1065 q 401 1015 364 1015 q 457 1040 442 1015 q 456 1090 472 1065 z "},"ǻ":{"ha":754,"x_min":50,"x_max":675,"o":"m 379 1275 l 553 1275 l 433 1158 l 292 1158 l 292 1163 l 379 1275 m 493 326 q 231 236 231 353 q 343 164 231 164 q 493 326 476 164 m 257 538 l 75 538 q 141 755 65 686 q 368 824 217 824 q 601 744 526 824 q 675 504 675 665 l 675 0 l 519 0 l 501 94 q 286 -11 425 -11 q 115 49 181 -11 q 50 221 50 108 q 493 471 50 501 q 467 611 493 568 q 369 654 442 654 q 281 628 307 654 q 257 538 256 603 m 203 988 q 250 1090 203 1053 q 365 1126 297 1126 q 482 1090 435 1126 q 529 989 529 1054 q 481 888 529 925 q 364 850 433 850 q 247 887 293 850 q 203 988 201 924 m 365 1039 q 315 1014 329 1039 q 315 963 300 989 q 365 938 329 938 q 410 953 394 938 q 426 988 426 969 q 409 1023 425 1007 q 365 1039 393 1039 z "},"Ǽ":{"ha":1031,"x_min":4,"x_max":997,"o":"m 768 1301 l 663 1128 l 497 1128 l 576 1301 l 768 1301 m 371 1072 l 978 1072 l 978 906 l 674 906 l 674 629 l 949 629 l 949 457 l 674 457 l 674 175 l 997 175 l 997 0 l 486 0 l 486 201 l 282 201 l 214 0 l 4 0 l 371 1072 m 329 376 l 486 376 l 486 883 l 329 376 z "},"ǽ":{"ha":1182,"x_min":50,"x_max":1110,"o":"m 757 1081 l 651 892 l 486 892 l 565 1081 l 757 1081 m 922 251 l 1110 251 q 793 -11 1110 -11 q 563 115 621 -11 q 446 13 507 36 q 286 -11 385 -11 q 115 49 181 -11 q 50 221 50 108 q 493 471 50 501 l 493 478 q 465 613 492 571 q 369 654 439 654 q 283 630 307 654 q 260 540 258 606 l 78 540 q 142 756 68 689 q 368 824 217 824 q 586 711 519 824 q 801 822 653 822 q 1110 503 1110 822 l 1110 340 l 665 340 l 665 319 q 699 192 665 226 q 796 157 732 157 q 922 251 922 157 m 807 657 q 697 617 728 657 q 665 497 665 576 l 932 497 q 906 613 932 569 q 807 657 881 657 m 493 326 q 231 236 231 353 q 343 164 231 164 q 493 326 476 164 z "},"Ǿ":{"ha":888,"x_min":82,"x_max":804,"o":"m 610 1331 l 503 1160 l 336 1160 l 417 1331 l 610 1331 m 439 -10 q 324 -1 375 -10 l 293 -86 l 135 -86 l 185 51 q 82 310 82 126 l 82 763 q 164 1008 82 933 q 439 1082 246 1082 q 557 1074 503 1082 l 592 1169 l 751 1169 l 697 1022 q 804 763 804 950 l 804 310 q 717 67 804 144 q 439 -10 629 -10 m 439 160 q 575 199 538 160 q 613 319 613 238 l 613 753 q 612 769 613 758 q 611 785 611 781 l 385 164 q 439 160 408 160 m 274 319 l 274 296 l 496 908 q 439 913 471 913 q 308 873 342 913 q 274 753 274 833 l 274 319 z "},"ǿ":{"ha":776,"x_min":69,"x_max":706,"o":"m 556 1078 l 449 907 l 282 907 l 363 1078 l 556 1078 m 388 -14 q 278 -3 329 -14 l 242 -83 l 93 -83 l 156 56 q 69 306 69 132 l 69 503 q 148 743 69 664 q 388 822 226 822 q 497 811 444 822 l 536 899 l 686 899 l 619 751 q 706 503 706 675 l 706 306 q 628 63 706 140 q 388 -14 550 -14 m 261 315 l 261 290 l 424 649 q 388 653 407 653 q 289 613 317 653 q 261 493 261 574 l 261 315 m 388 156 q 486 195 458 156 q 514 315 514 235 l 514 493 q 513 517 514 510 l 351 158 q 388 156 374 156 z "},"Ș":{"ha":839,"x_min":61,"x_max":776,"o":"m 560 790 q 521 881 556 856 q 414 907 486 907 q 299 877 333 907 q 265 772 265 847 q 271 724 265 744 q 291 688 276 703 q 319 665 306 674 q 362 650 333 657 q 410 640 390 643 q 469 633 429 638 q 535 624 510 628 q 626 601 588 615 q 701 556 664 586 q 757 471 738 525 q 776 340 776 417 q 691 72 776 154 q 413 -11 606 -11 q 61 290 61 -11 l 254 290 q 293 194 257 225 q 417 164 329 164 q 544 203 504 164 q 585 333 585 243 q 577 380 585 360 q 551 414 569 400 q 518 437 533 428 q 472 453 503 446 q 424 463 440 460 q 370 469 407 465 q 321 475 333 474 q 72 771 72 507 q 160 997 72 919 q 414 1075 249 1075 q 654 1009 568 1075 q 753 790 740 943 l 560 790 m 333 -350 l 269 -262 q 306 -235 292 -249 q 327 -210 319 -221 q 338 -180 335 -199 q 340 -150 340 -161 q 340 -112 340 -139 q 339 -71 339 -86 l 519 -71 q 485 -249 531 -182 q 333 -350 440 -317 z "},"ș":{"ha":724,"x_min":53,"x_max":681,"o":"m 671 563 l 485 563 q 454 630 485 607 q 375 653 424 653 q 257 567 257 653 q 265 529 257 544 q 285 506 274 514 q 319 492 296 497 q 358 485 342 488 q 408 481 375 483 q 461 476 442 479 q 617 410 554 465 q 681 253 681 354 q 592 60 681 125 q 364 -4 504 -4 q 135 65 218 -4 q 53 253 53 133 l 246 253 q 278 185 249 207 q 372 163 307 163 q 457 188 426 163 q 488 246 488 213 q 485 267 488 257 q 475 283 482 276 q 461 296 468 290 q 441 306 454 301 q 418 313 428 310 q 391 318 408 315 q 363 322 374 321 q 331 326 351 324 q 299 329 310 328 q 64 557 64 360 q 149 757 64 690 q 374 824 233 824 q 595 751 519 824 q 671 563 671 679 m 294 -350 l 231 -262 q 267 -235 253 -249 q 288 -210 281 -221 q 299 -180 296 -199 q 301 -150 301 -161 q 301 -112 301 -139 q 300 -71 300 -86 l 481 -71 q 447 -249 492 -182 q 294 -350 401 -317 z "},"Ț":{"ha":656,"x_min":11,"x_max":644,"o":"m 644 1065 l 644 894 l 424 894 l 424 0 l 233 0 l 233 894 l 11 894 l 11 1065 l 644 1065 m 232 -350 l 168 -262 q 204 -235 190 -249 q 226 -210 218 -221 q 236 -180 233 -199 q 239 -150 239 -161 q 238 -112 239 -139 q 238 -71 238 -86 l 418 -71 q 384 -249 429 -182 q 232 -350 339 -317 z "},"ț":{"ha":464,"x_min":89,"x_max":421,"o":"m 89 300 l 89 961 l 279 982 l 279 822 l 418 822 l 418 649 l 279 649 l 279 303 q 306 190 279 224 q 421 167 333 156 l 421 0 q 165 49 240 -19 q 89 300 89 118 m 190 -350 l 126 -262 q 163 -235 149 -249 q 184 -210 176 -221 q 194 -180 192 -199 q 197 -150 197 -161 q 197 -112 197 -139 q 196 -71 196 -86 l 376 -71 q 342 -249 388 -182 q 190 -350 297 -317 z "},"ȷ":{"ha":397,"x_min":1,"x_max":303,"o":"m 303 808 l 303 44 q 237 -198 303 -135 q 1 -261 171 -261 l 1 -99 q 90 -74 67 -99 q 113 40 113 -50 l 113 808 l 303 808 z "},"ˆ":{"ha":493,"x_min":17,"x_max":499,"o":"m 258 942 l 193 879 l 17 879 l 17 893 l 214 1072 l 303 1072 l 499 893 l 499 879 l 321 879 l 258 942 z "},"ˇ":{"ha":532,"x_min":15,"x_max":497,"o":"m 256 1008 l 321 1071 l 497 1071 l 497 1057 l 300 878 l 211 878 l 15 1057 l 15 1071 l 193 1071 l 256 1008 z "},"˘":{"ha":456,"x_min":28,"x_max":433,"o":"m 28 1074 l 171 1074 q 231 1010 171 1010 q 289 1074 289 1010 l 433 1074 q 231 888 432 888 q 28 1074 29 888 z "},"˙":{"ha":329,"x_min":56,"x_max":258,"o":"m 56 997 q 106 1084 56 1058 q 208 1085 157 1110 q 258 997 258 1060 q 226 926 258 953 q 157 899 194 900 q 88 924 119 897 q 56 997 56 950 z "},"˚":{"ha":444,"x_min":57,"x_max":396,"o":"m 58 935 q 108 1055 58 1011 q 226 1099 157 1099 q 347 1056 299 1099 q 396 936 396 1013 q 347 815 396 860 q 225 771 297 771 q 105 815 153 771 q 58 935 57 858 m 281 965 q 272 980 281 965 q 226 994 264 994 q 174 965 189 994 q 174 905 158 935 q 226 875 189 875 q 282 905 267 875 q 281 965 297 935 z "},"˛":{"ha":560,"x_min":172,"x_max":442,"o":"m 286 35 l 418 35 q 345 -42 363 0 q 349 -101 328 -83 q 435 -114 374 -131 l 442 -250 q 172 -121 172 -287 q 286 35 172 -25 z "},"˜":{"ha":572,"x_min":56,"x_max":514,"o":"m 168 892 l 56 950 q 138 1059 78 1022 q 265 1065 197 1096 l 333 1032 q 397 1068 375 1013 l 514 1019 q 441 899 494 942 q 313 888 388 857 l 238 924 q 204 928 228 935 q 168 892 181 921 z "},"˝":{"ha":513,"x_min":60,"x_max":543,"o":"m 60 918 l 150 1076 l 317 1076 l 317 1074 l 207 918 l 60 918 m 286 917 l 376 1076 l 543 1076 l 543 1074 l 435 917 l 286 917 z "},"μ":{"ha":728,"x_min":50,"x_max":674,"o":"m 50 -282 l 50 807 l 246 807 l 246 303 q 367 160 246 160 q 451 196 424 160 q 479 318 479 232 l 479 806 l 674 806 l 674 0 l 513 0 l 497 56 q 371 -17 460 -14 q 239 44 282 -21 l 239 -282 l 50 -282 z "},"Ẁ":{"ha":1286,"x_min":13,"x_max":1268,"o":"m 640 576 l 497 -1 l 296 -1 l 13 1069 l 210 1069 l 315 700 l 392 264 l 567 1035 l 714 1035 l 903 264 l 965 700 l 1071 1069 l 1268 1069 l 1000 -1 l 797 -1 l 640 576 m 560 1111 l 454 1300 l 646 1300 l 725 1111 l 560 1111 z "},"ẁ":{"ha":1075,"x_min":11,"x_max":1063,"o":"m 468 894 l 363 1083 l 554 1083 l 633 894 l 468 894 m 469 819 l 611 819 l 674 557 q 735 229 710 403 q 796 574 764 443 l 867 819 l 1063 819 l 825 -1 l 643 -1 l 594 178 l 538 467 l 481 175 l 432 -1 l 251 -1 l 11 819 l 208 819 l 281 574 q 340 229 310 456 q 349 302 343 243 q 366 422 356 361 q 394 560 376 482 q 432 694 404 600 q 469 819 460 788 z "},"Ẃ":{"ha":1286,"x_min":13,"x_max":1268,"o":"m 640 576 l 497 -1 l 296 -1 l 13 1069 l 210 1069 l 315 700 l 392 264 l 567 1035 l 714 1035 l 903 264 l 965 700 l 1071 1069 l 1268 1069 l 1000 -1 l 797 -1 l 640 576 m 825 1301 l 719 1113 l 554 1113 l 633 1301 l 825 1301 z "},"ẃ":{"ha":1075,"x_min":11,"x_max":1063,"o":"m 469 819 l 611 819 l 674 557 q 735 229 710 403 q 796 574 764 443 l 867 819 l 1063 819 l 825 -1 l 643 -1 l 594 178 l 538 467 l 481 175 l 432 -1 l 251 -1 l 11 819 l 208 819 l 281 574 q 340 229 310 456 q 349 302 343 243 q 366 422 356 361 q 394 560 376 482 q 432 694 404 600 q 469 819 460 788 m 726 1086 l 621 897 l 456 897 l 535 1086 l 726 1086 z "},"Ẅ":{"ha":1286,"x_min":13,"x_max":1268,"o":"m 357 1219 q 408 1305 357 1279 q 510 1306 458 1331 q 561 1219 561 1282 q 529 1151 561 1176 q 459 1124 497 1125 q 389 1148 421 1122 q 357 1219 357 1174 m 714 1219 q 746 1290 714 1264 q 816 1317 778 1317 q 886 1292 854 1318 q 918 1219 918 1267 q 886 1151 918 1176 q 816 1124 854 1125 q 746 1148 778 1122 q 714 1219 714 1174 m 640 576 l 497 -1 l 296 -1 l 13 1069 l 210 1069 l 315 700 l 392 264 l 567 1035 l 714 1035 l 903 264 l 965 700 l 1071 1069 l 1268 1069 l 1000 -1 l 797 -1 l 640 576 z "},"ẅ":{"ha":1075,"x_min":11,"x_max":1063,"o":"m 260 1003 q 310 1088 260 1063 q 413 1090 361 1114 q 464 1003 464 1065 q 432 934 464 960 q 362 907 400 908 q 292 931 324 906 q 260 1003 260 957 m 614 1003 q 646 1074 614 1047 q 716 1101 678 1100 q 786 1076 754 1101 q 818 1003 818 1050 q 786 934 818 960 q 716 907 754 908 q 646 931 678 906 q 614 1003 614 957 m 469 819 l 611 819 l 674 557 q 735 229 710 403 q 796 574 764 443 l 867 819 l 1063 819 l 825 -1 l 643 -1 l 594 178 l 538 467 l 481 175 l 432 -1 l 251 -1 l 11 819 l 208 819 l 281 574 q 340 229 310 456 q 349 302 343 243 q 366 422 356 361 q 394 560 376 482 q 432 694 404 600 q 469 819 460 788 z "},"Ỳ":{"ha":725,"x_min":-3,"x_max":729,"o":"m 522 1069 l 729 1069 l 460 447 l 460 -1 l 269 -1 l 269 447 l -3 1069 l 204 1069 l 288 872 l 365 643 l 443 878 l 522 1069 m 293 1121 l 188 1310 l 379 1310 l 458 1121 l 293 1121 z "},"ỳ":{"ha":708,"x_min":21,"x_max":692,"o":"m 493 819 l 692 819 l 449 10 l 450 10 l 406 -149 q 334 -281 379 -239 q 227 -322 289 -324 q 86 -290 165 -321 l 115 -150 q 133 -155 118 -151 q 152 -159 147 -158 q 169 -161 157 -160 q 186 -161 181 -162 q 201 -157 192 -160 q 215 -148 210 -154 q 225 -133 219 -142 q 235 -110 231 -124 l 267 6 l 21 819 l 219 819 l 293 574 q 357 229 332 419 q 421 574 388 436 l 493 819 m 278 890 l 172 1079 l 364 1079 l 443 890 l 278 890 z "},"–":{"ha":851,"x_min":107,"x_max":744,"o":"m 744 551 l 744 392 l 107 392 l 107 551 l 744 551 z "},"—":{"ha":989,"x_min":107,"x_max":882,"o":"m 882 551 l 882 392 l 107 392 l 107 551 l 882 551 z "},"‘":{"ha":407,"x_min":82,"x_max":335,"o":"m 335 1072 l 271 807 l 82 807 l 171 1072 l 335 1072 z "},"’":{"ha":399,"x_min":85,"x_max":338,"o":"m 85 806 l 149 1071 l 338 1071 l 249 806 l 85 806 z "},"‚":{"ha":272,"x_min":-3,"x_max":231,"o":"m 54 -228 l -3 -132 q 34 -99 21 -115 q 53 -59 47 -83 q 60 -24 58 -35 q 61 26 63 -14 q 60 78 60 65 l 221 78 q 190 -117 231 -43 q 54 -228 150 -192 z "},"“":{"ha":613,"x_min":63,"x_max":540,"o":"m 540 1071 l 481 807 l 303 807 l 386 1071 l 540 1071 m 300 1071 l 240 807 l 63 807 l 147 1071 l 300 1071 z "},"”":{"ha":626,"x_min":88,"x_max":565,"o":"m 88 807 l 147 1071 l 325 1071 l 242 807 l 88 807 m 328 807 l 388 1071 l 565 1071 l 481 807 l 328 807 z "},"„":{"ha":490,"x_min":-3,"x_max":478,"o":"m 54 -228 l -3 -132 q 34 -99 21 -115 q 53 -59 47 -83 q 60 -24 58 -35 q 61 26 63 -14 q 60 78 60 65 l 221 78 q 190 -117 231 -43 q 54 -228 150 -192 m 301 -228 l 244 -132 q 281 -99 268 -115 q 300 -59 294 -83 q 308 -24 306 -35 q 308 26 310 -14 q 307 78 307 65 l 468 78 q 438 -117 478 -43 q 301 -228 397 -192 z "},"†":{"ha":715,"x_min":36,"x_max":669,"o":"m 244 535 l 244 867 l 438 867 l 438 535 l 669 535 l 669 343 l 438 343 l 438 -231 l 244 -231 l 244 343 l 36 343 l 36 535 l 244 535 z "},"‡":{"ha":749,"x_min":43,"x_max":676,"o":"m 676 396 l 676 207 l 457 207 l 457 -236 l 264 -236 l 264 207 l 43 207 l 43 396 l 264 396 l 264 533 l 43 533 l 43 722 l 264 722 l 264 1068 l 314 1068 l 457 1068 l 457 722 l 676 722 l 676 533 l 457 533 l 457 396 l 676 396 z "},"•":{"ha":546,"x_min":126,"x_max":418,"o":"m 274 318 q 168 358 210 318 q 126 463 126 399 q 168 567 126 526 q 274 607 210 607 q 377 567 336 607 q 418 461 418 526 q 377 358 418 397 q 274 318 336 318 z "},"…":{"ha":1003,"x_min":44,"x_max":926,"o":"m 78 22 q 61 36 78 22 q 44 100 44 50 q 78 178 44 150 q 152 207 111 207 q 226 178 193 207 q 260 100 260 150 q 226 23 260 51 q 152 -6 193 -6 q 78 22 111 -6 m 379 100 q 433 194 379 167 q 540 194 486 221 q 594 100 594 167 q 561 23 594 51 q 487 -6 528 -6 q 413 22 446 -6 q 379 100 379 50 m 744 22 q 728 36 744 22 q 711 100 711 50 q 744 178 711 150 q 819 207 778 207 q 893 178 860 207 q 926 100 926 150 q 893 23 926 51 q 819 -6 860 -6 q 744 22 778 -6 z "},"‰":{"ha":1615,"x_min":42,"x_max":1571,"o":"m 888 0 q 734 50 783 0 q 685 206 685 100 l 685 325 q 888 531 685 531 q 1043 481 993 531 q 1093 325 1093 431 l 1093 206 q 1043 50 1093 100 q 888 0 993 0 m 888 149 q 935 167 922 149 q 949 226 949 186 l 949 306 q 935 364 949 346 q 888 382 922 382 q 841 364 854 382 q 828 306 828 346 l 828 226 q 841 167 828 186 q 888 149 854 149 m 244 549 q 91 599 140 549 q 42 754 42 649 l 42 874 q 244 1079 42 1079 q 400 1029 350 1079 q 450 874 450 979 l 450 754 q 400 599 450 649 q 244 549 350 549 m 244 697 q 292 716 279 697 q 306 775 306 735 l 306 854 q 292 913 306 894 q 244 931 279 931 q 198 913 211 931 q 185 854 185 894 l 185 775 q 198 716 185 735 q 244 697 211 697 m 1365 0 q 1212 50 1261 0 q 1163 206 1163 100 l 1163 325 q 1365 531 1163 531 q 1521 481 1471 531 q 1571 325 1571 431 l 1571 206 q 1521 50 1571 100 q 1365 0 1471 0 m 1365 149 q 1413 167 1400 149 q 1426 226 1426 186 l 1426 306 q 1413 364 1426 346 q 1365 382 1400 382 q 1319 364 1332 382 q 1306 306 1306 346 l 1306 226 q 1319 167 1306 186 q 1365 149 1332 149 m 619 1089 l 807 1071 l 496 -19 l 310 0 l 619 1089 z "},"‹":{"ha":525,"x_min":68,"x_max":454,"o":"m 68 461 l 264 774 l 454 774 l 260 460 l 454 147 l 264 147 l 68 461 z "},"›":{"ha":528,"x_min":74,"x_max":460,"o":"m 264 774 l 460 461 l 264 147 l 74 147 l 268 460 l 74 774 l 264 774 z "},"⁄":{"ha":175,"x_min":-236,"x_max":417,"o":"m -236 -4 l 242 1076 l 417 1076 l -61 -4 l -236 -4 z "},"€":{"ha":733,"x_min":38,"x_max":707,"o":"m 625 199 l 707 47 q 529 -4 619 -4 l 446 -4 q 220 72 311 -4 q 129 276 129 147 l 129 385 l 38 385 l 38 494 l 129 494 l 129 565 l 38 565 l 38 675 l 129 675 l 129 796 q 225 992 129 913 q 446 1072 321 1072 l 529 1072 q 700 1028 628 1072 l 614 876 q 555 897 572 894 q 446 899 538 899 q 319 772 319 899 l 319 675 l 597 675 l 597 565 l 319 565 l 319 494 l 597 494 l 597 385 l 319 385 l 319 308 q 356 212 319 253 q 446 171 393 171 l 529 171 q 625 199 585 171 z "},"™":{"ha":738,"x_min":35,"x_max":688,"o":"m 297 1074 l 297 981 l 214 981 l 214 625 l 118 625 l 118 981 l 35 981 l 35 1074 l 297 1074 m 335 624 l 335 1075 l 435 1075 l 513 926 l 582 1075 l 688 1075 l 688 624 l 592 624 l 592 778 l 593 860 l 529 700 l 496 700 l 429 858 q 431 778 431 843 l 431 624 l 335 624 z "},"ﬁ":{"ha":786,"x_min":82,"x_max":710,"o":"m 696 797 l 696 -1 l 506 -1 l 506 629 l 272 629 l 272 -1 l 82 -1 l 82 804 q 169 1022 82 944 q 425 1086 256 1099 l 426 922 q 308 901 343 928 q 272 801 272 875 l 272 797 l 696 797 m 494 985 q 548 1078 494 1051 q 656 1078 601 1106 q 710 985 710 1051 q 676 908 710 936 q 602 879 643 879 q 528 907 561 879 q 494 985 494 935 z "},"ﬂ":{"ha":842,"x_min":82,"x_max":803,"o":"m 440 1083 l 440 915 q 272 789 272 943 l 272 746 l 425 746 l 425 571 l 272 571 l 272 -1 l 82 -1 l 82 792 q 171 1024 82 942 q 440 1083 260 1106 m 517 300 l 517 1071 l 707 1071 l 707 303 q 726 208 707 233 q 803 183 744 183 l 803 0 q 576 63 636 0 q 517 300 517 125 z "}}}
